<svg width="406" height="306" viewBox="0 0 406 306" fill="none" xmlns="http://www.w3.org/2000/svg">
<circle cx="203.5" cy="152.5" r="118.5" fill="#FFB200"/>
<g filter="url(#filter0_d_722_463)">
<path d="M241.476 223.39H154.531V264.366H241.476V223.39Z" fill="#231F20"/>
<path d="M241.476 264.863H154.531C154.396 264.863 154.267 264.81 154.172 264.715C154.077 264.619 154.023 264.49 154.023 264.356V223.39C154.023 223.256 154.077 223.127 154.172 223.031C154.267 222.936 154.396 222.883 154.531 222.883H241.476C241.61 222.883 241.74 222.936 241.835 223.031C241.93 223.127 241.983 223.256 241.983 223.39V264.356C241.983 264.49 241.93 264.619 241.835 264.715C241.74 264.81 241.61 264.863 241.476 264.863ZM155.038 263.848H240.968V223.898H155.038V263.848Z" fill="#231F20"/>
<path d="M322.555 181.166H296.855C296.721 181.166 296.591 181.113 296.496 181.018C296.401 180.922 296.348 180.793 296.348 180.659V175.675C296.348 175.541 296.401 175.411 296.496 175.316C296.591 175.221 296.721 175.168 296.855 175.168H322.555C322.69 175.168 322.819 175.221 322.914 175.316C323.009 175.411 323.062 175.541 323.062 175.675V180.659C323.062 180.793 323.009 180.922 322.914 181.018C322.819 181.113 322.69 181.166 322.555 181.166ZM297.363 180.151H322.047V176.183H297.393L297.363 180.151Z" fill="#D1D3D4"/>
<path d="M318.222 211.088H301.18C301.053 211.089 300.931 211.04 300.839 210.954C300.746 210.867 300.691 210.748 300.683 210.622L298.704 180.689C298.698 180.547 298.749 180.408 298.846 180.304C298.892 180.254 298.949 180.215 299.012 180.189C299.075 180.162 299.143 180.15 299.211 180.151H320.201C320.269 180.15 320.337 180.162 320.4 180.189C320.463 180.215 320.52 180.254 320.567 180.304C320.663 180.408 320.714 180.547 320.709 180.689L318.679 210.622C318.672 210.741 318.622 210.855 318.538 210.941C318.454 211.026 318.342 211.079 318.222 211.088ZM301.657 210.073H317.755L319.653 181.166H299.759L301.657 210.073Z" fill="#D1D3D4"/>
<path d="M331.903 210.723H130.629C128.409 210.723 126.609 212.523 126.609 214.742V219.371C126.609 221.591 128.409 223.39 130.629 223.39H331.903C334.123 223.39 335.923 221.591 335.923 219.371V214.742C335.923 212.523 334.123 210.723 331.903 210.723Z" fill="white"/>
<path d="M331.903 223.898H130.639C129.437 223.898 128.285 223.421 127.434 222.573C126.583 221.724 126.104 220.572 126.102 219.371V214.742C126.104 213.541 126.583 212.39 127.434 211.541C128.285 210.692 129.437 210.216 130.639 210.216H331.903C333.104 210.216 334.255 210.693 335.104 211.541C335.953 212.39 336.43 213.542 336.43 214.742V219.371C336.43 220.571 335.953 221.723 335.104 222.572C334.255 223.421 333.104 223.898 331.903 223.898ZM130.639 211.231C129.706 211.231 128.812 211.6 128.152 212.259C127.492 212.917 127.119 213.81 127.117 214.742V219.371C127.119 220.303 127.492 221.196 128.152 221.855C128.812 222.513 129.706 222.883 130.639 222.883H331.903C332.834 222.883 333.728 222.513 334.386 221.854C335.045 221.196 335.415 220.302 335.415 219.371V214.742C335.415 213.811 335.045 212.918 334.386 212.259C333.728 211.601 332.834 211.231 331.903 211.231H130.639Z" fill="#231F20"/>
<path d="M333.112 210.723H236.068C234.509 210.723 233.246 211.986 233.246 213.545V220.569C233.246 222.127 234.509 223.39 236.068 223.39H333.112C334.67 223.39 335.934 222.127 335.934 220.569V213.545C335.934 211.986 334.67 210.723 333.112 210.723Z" fill="white"/>
<path d="M333.11 223.898H236.056C235.173 223.898 234.326 223.547 233.702 222.923C233.077 222.298 232.727 221.452 232.727 220.569V213.535C232.727 213.098 232.813 212.665 232.98 212.262C233.148 211.859 233.393 211.492 233.702 211.184C234.012 210.876 234.379 210.631 234.783 210.465C235.186 210.299 235.619 210.214 236.056 210.216H333.11C333.99 210.216 334.835 210.565 335.457 211.188C336.079 211.81 336.429 212.654 336.429 213.535V220.569C336.429 221.45 336.08 222.295 335.458 222.919C334.835 223.543 333.991 223.895 333.11 223.898ZM236.056 211.231C235.444 211.231 234.857 211.473 234.423 211.905C233.989 212.337 233.744 212.923 233.742 213.535V220.569C233.744 221.181 233.989 221.769 234.422 222.202C234.856 222.635 235.443 222.88 236.056 222.883H333.11C333.722 222.88 334.308 222.635 334.74 222.201C335.172 221.768 335.414 221.181 335.414 220.569V213.535C335.414 212.924 335.171 212.337 334.739 211.905C334.307 211.473 333.721 211.231 333.11 211.231H236.056Z" fill="#231F20"/>
<path d="M244.615 157.689C244.615 157.689 248.117 193.559 240.362 198.431C233.166 202.928 225.188 201.618 220.752 201.618C219.109 201.539 217.483 201.989 216.114 202.903C214.746 203.816 213.707 205.145 213.15 206.693L211.973 210.591H267.392C271.556 207.852 275.064 204.227 277.663 199.974C281.378 193.417 279.084 159.374 279.084 159.374L244.615 157.689Z" fill="white"/>
<path d="M267.431 211.088H212.012C211.933 211.09 211.855 211.072 211.784 211.037C211.713 211.002 211.652 210.95 211.606 210.885C211.556 210.824 211.522 210.751 211.508 210.673C211.493 210.595 211.499 210.514 211.525 210.439L212.702 206.541C213.297 204.887 214.407 203.467 215.868 202.489C217.33 201.512 219.066 201.029 220.822 201.111C221.563 201.111 222.416 201.111 223.339 201.192C227.958 201.395 234.301 201.669 240.158 197.995C243.203 196.107 244.837 188.586 244.959 176.243C245.05 166.804 244.188 157.831 244.177 157.74C244.172 157.668 244.182 157.595 244.206 157.527C244.231 157.459 244.269 157.397 244.32 157.344C244.369 157.289 244.431 157.246 244.499 157.218C244.568 157.19 244.641 157.178 244.715 157.182L279.124 158.867C279.247 158.873 279.365 158.924 279.454 159.01C279.543 159.096 279.599 159.21 279.611 159.334C279.702 160.734 281.874 193.6 278.129 200.208C275.49 204.539 271.923 208.231 267.685 211.017C267.608 211.063 267.52 211.088 267.431 211.088ZM212.692 210.073H267.279C271.324 207.381 274.733 203.837 277.266 199.69C280.636 193.752 278.901 163.881 278.647 159.831L245.213 158.207C245.649 163.049 248.146 194.158 240.666 198.807C234.576 202.644 227.755 202.349 223.258 202.156C222.355 202.156 221.523 202.075 220.792 202.075C219.26 202.001 217.745 202.418 216.467 203.265C215.189 204.112 214.215 205.345 213.687 206.785L212.692 210.073Z" fill="#231F20"/>
<path d="M276.464 191.814C276.464 200.675 273.805 203.324 270.263 203.324H256.357C255.403 203.322 254.471 203.613 253.687 204.158C252.903 204.702 252.304 205.474 251.972 206.369L250.43 210.561H271.856C277.347 210.561 281.245 202.248 281.418 193.387C281.59 184.526 281.418 159.354 281.418 159.354H276.637C276.637 159.354 276.464 182.963 276.464 191.814Z" fill="#231F20"/>
<path d="M271.857 211.088H250.431C250.35 211.087 250.27 211.067 250.198 211.03C250.126 210.993 250.063 210.94 250.015 210.875C249.97 210.807 249.941 210.73 249.93 210.649C249.92 210.568 249.928 210.486 249.954 210.408L251.496 206.216C251.862 205.22 252.524 204.361 253.393 203.752C254.263 203.144 255.297 202.818 256.358 202.816H270.264C274.09 202.816 275.958 199.223 275.958 191.814C275.958 183.064 276.13 159.597 276.13 159.334C276.136 159.202 276.191 159.077 276.285 158.984C276.38 158.892 276.506 158.839 276.638 158.836H281.419C281.485 158.835 281.551 158.847 281.612 158.871C281.674 158.896 281.73 158.932 281.777 158.978C281.824 159.025 281.862 159.08 281.887 159.141C281.913 159.202 281.926 159.267 281.926 159.334C281.926 159.587 282.109 184.627 281.926 193.387C281.743 202.146 277.937 211.088 271.857 211.088ZM251.161 210.073H271.857C276.668 210.073 280.728 202.593 280.911 193.397C281.074 185.348 280.911 163.485 280.911 159.902H277.135C277.135 163.373 276.963 183.805 276.963 191.834C276.963 199.863 274.77 203.851 270.254 203.851H256.348C255.494 203.851 254.66 204.114 253.961 204.604C253.262 205.094 252.731 205.789 252.44 206.592L251.161 210.073Z" fill="#231F20"/>
<path d="M201.638 60.0057L193.254 155.903C193.116 156.971 193.207 158.057 193.52 159.088C193.833 160.119 194.362 161.071 195.071 161.882C195.78 162.693 196.654 163.344 197.634 163.792C198.614 164.24 199.678 164.474 200.755 164.48H315.095C317.384 164.396 319.563 163.478 321.222 161.898C322.88 160.318 323.903 158.185 324.098 155.903L332.492 60.0057C332.632 58.9369 332.542 57.8506 332.23 56.8191C331.917 55.7876 331.388 54.8344 330.679 54.023C329.969 53.2117 329.095 52.5607 328.114 52.1134C327.134 51.6662 326.069 51.4328 324.991 51.429H210.641C208.352 51.5124 206.172 52.4308 204.514 54.0108C202.855 55.5909 201.832 57.7233 201.638 60.0057Z" fill="#231F20"/>
<path d="M315.095 164.987H200.755C199.652 164.998 198.558 164.777 197.546 164.338C196.533 163.899 195.625 163.252 194.878 162.439C194.082 161.554 193.48 160.511 193.113 159.378C192.746 158.244 192.621 157.047 192.747 155.862L201.131 59.9651C201.342 57.5577 202.424 55.3102 204.176 53.6449C205.927 51.9796 208.226 51.0111 210.641 50.9214H324.991C326.098 50.9079 327.195 51.1278 328.211 51.5667C329.227 52.0057 330.139 52.6539 330.888 53.4691C331.683 54.3576 332.284 55.4027 332.651 56.5372C333.018 57.6717 333.144 58.8705 333.02 60.0564L324.626 155.943C324.416 158.355 323.331 160.606 321.575 162.273C319.819 163.939 317.514 164.904 315.095 164.987ZM202.146 60.0564L193.751 155.943C193.641 156.989 193.751 158.046 194.074 159.046C194.398 160.046 194.927 160.967 195.629 161.749C196.275 162.451 197.059 163.011 197.933 163.394C198.807 163.777 199.75 163.974 200.704 163.972H315.095C317.259 163.888 319.318 163.017 320.884 161.521C322.45 160.026 323.416 158.01 323.6 155.852L331.984 59.9549C332.098 58.9103 331.991 57.8534 331.669 56.8531C331.347 55.8527 330.818 54.9314 330.117 54.1491C329.466 53.4403 328.673 52.8762 327.79 52.4932C326.907 52.1103 325.953 51.9172 324.991 51.9263H210.641C208.478 52.0103 206.421 52.8822 204.856 54.3777C203.291 55.8733 202.327 57.8894 202.146 60.0463V60.0564Z" fill="#231F20"/>
<path d="M201.261 59.62L193.243 151.183C193.112 152.204 193.199 153.24 193.499 154.224C193.799 155.208 194.304 156.118 194.981 156.892C195.659 157.666 196.493 158.288 197.428 158.716C198.364 159.144 199.38 159.368 200.408 159.374H309.572C311.757 159.291 313.836 158.413 315.419 156.904C317.002 155.396 317.98 153.362 318.169 151.183L326.197 59.62C326.33 58.5993 326.244 57.5621 325.945 56.5772C325.645 55.5923 325.14 54.6824 324.463 53.9077C323.785 53.133 322.95 52.5114 322.014 52.084C321.077 51.6566 320.061 51.4334 319.031 51.429H209.858C207.672 51.508 205.59 52.3849 204.006 53.894C202.422 55.4031 201.446 57.44 201.261 59.62Z" fill="white"/>
<path d="M309.575 159.882H200.412C199.355 159.89 198.309 159.676 197.341 159.255C196.372 158.834 195.503 158.214 194.789 157.436C194.026 156.586 193.452 155.586 193.102 154.5C192.752 153.414 192.635 152.267 192.759 151.132L200.757 59.62C200.955 57.3084 201.994 55.1498 203.678 53.5539C205.362 51.9579 207.573 51.0356 209.892 50.962H319.035C320.093 50.9537 321.14 51.167 322.111 51.5883C323.081 52.0097 323.952 52.6296 324.668 53.4082C325.429 54.256 326.003 55.2545 326.353 56.3387C326.702 57.4229 326.82 58.5685 326.698 59.7012L318.71 151.224C318.51 153.535 317.47 155.692 315.787 157.287C314.103 158.883 311.893 159.806 309.575 159.882ZM201.762 59.62L193.753 151.183C193.646 152.177 193.749 153.183 194.057 154.135C194.365 155.086 194.87 155.962 195.54 156.705C196.157 157.381 196.91 157.92 197.749 158.285C198.589 158.651 199.496 158.835 200.412 158.826H309.575C311.64 158.752 313.606 157.924 315.102 156.499C316.598 155.074 317.52 153.15 317.695 151.092L325.693 59.62C325.8 58.625 325.698 57.6186 325.392 56.6657C325.086 55.7129 324.583 54.8348 323.917 54.0882C323.296 53.4143 322.541 52.8781 321.7 52.5145C320.859 52.1508 319.951 51.9677 319.035 51.977H209.861C207.798 52.0512 205.834 52.8776 204.338 54.3005C202.842 55.7234 201.918 57.6443 201.741 59.7012L201.762 59.62Z" fill="#231F20"/>
<path d="M194.592 135.806L193.243 151.183C193.112 152.204 193.199 153.24 193.499 154.224C193.799 155.208 194.304 156.118 194.981 156.892C195.659 157.666 196.493 158.288 197.428 158.716C198.364 159.144 199.38 159.368 200.408 159.374H309.572C311.757 159.291 313.836 158.413 315.419 156.904C317.002 155.396 317.98 153.362 318.169 151.183L319.509 135.806H194.592Z" fill="white"/>
<path d="M309.575 159.882H200.412C199.355 159.89 198.309 159.676 197.341 159.255C196.372 158.834 195.503 158.214 194.789 157.436C194.026 156.586 193.452 155.586 193.102 154.5C192.752 153.414 192.635 152.267 192.759 151.132L194.088 135.745C194.098 135.618 194.156 135.499 194.251 135.412C194.345 135.326 194.468 135.278 194.596 135.278H319.532C319.602 135.279 319.672 135.294 319.736 135.321C319.801 135.349 319.859 135.39 319.908 135.44C320.001 135.547 320.048 135.685 320.04 135.826L318.71 151.224C318.51 153.535 317.47 155.692 315.787 157.287C314.103 158.883 311.893 159.806 309.575 159.882ZM195.063 136.313L193.753 151.224C193.646 152.218 193.749 153.224 194.057 154.175C194.365 155.127 194.87 156.003 195.54 156.745C196.157 157.422 196.91 157.961 197.749 158.326C198.589 158.692 199.496 158.876 200.412 158.867H309.575C311.64 158.792 313.606 157.964 315.102 156.539C316.598 155.114 317.52 153.191 317.695 151.132L318.984 136.313H195.063Z" fill="#231F20"/>
<path d="M260.15 150.337C261.832 147.827 261.354 144.558 259.081 143.035C256.809 141.512 253.603 142.312 251.921 144.822C250.239 147.332 250.717 150.601 252.99 152.124C255.262 153.647 258.468 152.847 260.15 150.337Z" fill="white"/>
<path d="M255.565 153.406C254.858 153.411 254.158 153.268 253.51 152.987C252.861 152.705 252.279 152.291 251.8 151.772C251.287 151.202 250.9 150.531 250.664 149.801C250.428 149.072 250.348 148.301 250.429 147.539C250.565 145.999 251.259 144.562 252.38 143.498C253.502 142.434 254.974 141.817 256.519 141.764C257.226 141.759 257.926 141.902 258.575 142.183C259.223 142.465 259.806 142.878 260.285 143.398C260.797 143.969 261.183 144.64 261.419 145.369C261.655 146.098 261.735 146.869 261.655 147.631C261.522 149.171 260.829 150.61 259.707 151.674C258.584 152.739 257.111 153.355 255.565 153.406ZM256.499 142.779C255.207 142.831 253.979 143.353 253.045 144.246C252.111 145.139 251.534 146.343 251.424 147.631C251.359 148.253 251.424 148.883 251.617 149.479C251.809 150.075 252.124 150.624 252.541 151.092C252.928 151.51 253.4 151.842 253.925 152.066C254.449 152.29 255.015 152.4 255.586 152.391C256.879 152.345 258.111 151.826 259.047 150.931C259.982 150.037 260.557 148.83 260.661 147.539C260.731 146.919 260.668 146.29 260.478 145.695C260.287 145.1 259.972 144.552 259.554 144.088C259.166 143.667 258.693 143.332 258.167 143.107C257.64 142.881 257.072 142.769 256.499 142.779Z" fill="#231F20"/>
<path d="M260.74 206.115H176.719V210.723H260.74V206.115Z" fill="white"/>
<path d="M260.74 211.231H176.718C176.585 211.228 176.457 211.174 176.362 211.079C176.268 210.984 176.214 210.857 176.211 210.723V206.115C176.211 205.98 176.264 205.851 176.36 205.756C176.455 205.661 176.584 205.607 176.718 205.607H260.74C260.875 205.607 261.004 205.661 261.099 205.756C261.194 205.851 261.248 205.98 261.248 206.115V210.723C261.248 210.858 261.194 210.987 261.099 211.082C261.004 211.177 260.875 211.231 260.74 211.231ZM177.226 210.216H260.233V206.622H177.226V210.216Z" fill="#231F20"/>
<path d="M164.887 228.354C164.887 228.354 203.701 238.138 203.701 264.366H101.125C101.125 264.366 84.8137 248.613 88.8433 224.415C130.174 225.847 164.887 228.354 164.887 228.354Z" fill="white"/>
<path d="M203.709 264.863H101.123C101.057 264.865 100.991 264.854 100.93 264.829C100.869 264.805 100.814 264.768 100.767 264.721C100.605 264.569 84.3142 248.481 88.3438 224.334C88.3673 224.214 88.4318 224.106 88.5262 224.028C88.6206 223.951 88.7391 223.908 88.8614 223.908C129.725 225.319 164.58 227.826 164.926 227.846H165.017C165.403 227.937 204.216 237.996 204.216 264.335C204.219 264.404 204.208 264.472 204.184 264.536C204.159 264.6 204.122 264.658 204.075 264.707C204.027 264.757 203.971 264.796 203.908 264.823C203.845 264.849 203.777 264.863 203.709 264.863ZM101.336 263.848H203.191C202.704 239.072 166.255 229.237 164.804 228.861C163.352 228.749 129.279 226.334 89.2674 224.943C85.786 247.141 99.7625 262.234 101.336 263.848Z" fill="#231F20"/>
<path d="M217.697 183.957C217.697 183.957 230.486 177.502 234.069 177.502C237.652 177.502 248.908 180.689 250.106 183.957C251.304 187.226 252.836 192.514 251.303 192.686C249.771 192.859 247.721 187.053 247.721 187.611C247.721 188.17 243.285 193.072 238.332 191.54L225.33 195.072L217.656 185.348" fill="white"/>
<path d="M225.329 195.63C225.253 195.63 225.177 195.613 225.109 195.58C225.04 195.546 224.98 195.498 224.933 195.437L217.25 185.713C217.168 185.607 217.132 185.472 217.149 185.339C217.166 185.206 217.235 185.085 217.341 185.003C217.393 184.961 217.452 184.929 217.516 184.91C217.58 184.891 217.647 184.885 217.714 184.893C217.78 184.9 217.844 184.921 217.902 184.954C217.96 184.987 218.011 185.031 218.052 185.084L225.522 194.544L238.159 191.052C238.251 191.022 238.351 191.022 238.443 191.052C242.787 192.402 246.827 188.251 247.172 187.53C247.186 187.423 247.232 187.323 247.305 187.243C247.377 187.163 247.473 187.108 247.578 187.084C248.014 186.982 248.126 187.236 248.593 188.17C250.247 191.763 250.978 192.23 251.242 192.23C251.76 191.448 251.059 188.078 249.628 184.181C248.613 181.329 237.935 178.091 234.068 178.091C230.648 178.091 218.052 184.424 217.92 184.485C217.801 184.535 217.669 184.537 217.549 184.493C217.428 184.448 217.329 184.36 217.272 184.246C217.214 184.131 217.201 183.999 217.237 183.876C217.272 183.753 217.353 183.648 217.463 183.582C217.991 183.318 230.404 177.076 234.068 177.076C237.408 177.076 249.243 180.202 250.582 183.866C251.374 186.028 253.11 191.225 252.166 192.747C252.084 192.894 251.967 193.018 251.825 193.109C251.683 193.199 251.521 193.253 251.354 193.265C250.014 193.417 248.796 191.063 247.679 188.637C247.117 189.274 246.487 189.849 245.802 190.352C244.381 191.367 241.518 193.011 238.331 192.098L225.502 195.64L225.329 195.63Z" fill="#231F20"/>
<path d="M88.8405 224.415C88.8405 224.415 78.6093 140.678 90.7588 123.565C102.908 106.452 132.739 103.681 146.584 114.724C160.428 125.768 167.168 227.227 167.168 227.227C167.168 227.227 130.009 238.199 88.8405 224.415Z" fill="#125B50"/>
<path d="M146.544 114.714C146.544 114.714 155.384 120.063 162.012 132.304C168.64 144.545 182.546 189.865 182.546 189.865L219.4 181.948L233.732 195.498C233.732 195.498 205.099 209.708 187.976 217.452C170.853 225.197 127.137 177.137 127.137 177.137L146.544 114.714Z" fill="#125B50"/>
<path d="M170.854 214.712C170.758 214.713 170.664 214.688 170.58 214.641C170.286 214.458 141.084 195.772 130.792 147.133C130.778 147.067 130.778 146.998 130.79 146.931C130.803 146.864 130.828 146.8 130.866 146.743C130.903 146.686 130.951 146.637 131.007 146.599C131.063 146.56 131.127 146.533 131.193 146.519C131.26 146.505 131.329 146.504 131.396 146.517C131.462 146.53 131.526 146.555 131.583 146.592C131.64 146.63 131.689 146.678 131.728 146.734C131.766 146.79 131.793 146.853 131.807 146.92C137.136 172.102 147.55 188.941 155.345 198.685C163.8 209.18 171.078 213.778 171.149 213.829C171.24 213.888 171.31 213.974 171.348 214.076C171.387 214.178 171.391 214.289 171.362 214.393C171.332 214.498 171.27 214.59 171.184 214.657C171.098 214.723 170.993 214.76 170.885 214.763L170.854 214.712Z" fill="#231F20"/>
<path d="M152.128 78.905C150.981 78.905 149.861 78.5651 148.908 77.9282C147.955 77.2914 147.212 76.3862 146.773 75.3272C146.335 74.2682 146.22 73.1029 146.443 71.9786C146.667 70.8544 147.219 69.8217 148.03 69.0112C148.84 68.2006 149.873 67.6486 150.997 67.425C152.121 67.2014 153.287 67.3162 154.346 67.7548C155.405 68.1935 156.31 68.9363 156.947 69.8894C157.583 70.8425 157.923 71.963 157.923 73.1093C157.921 74.6456 157.309 76.1182 156.223 77.2045C155.137 78.2908 153.664 78.9023 152.128 78.905ZM152.128 68.3287C151.182 68.3287 150.258 68.609 149.472 69.1344C148.686 69.6597 148.073 70.4063 147.711 71.2798C147.349 72.1534 147.254 73.1146 147.439 74.042C147.623 74.9693 148.079 75.8212 148.747 76.4897C149.416 77.1583 150.268 77.6136 151.195 77.7981C152.122 77.9826 153.084 77.8879 153.957 77.5261C154.831 77.1642 155.577 76.5515 156.103 75.7653C156.628 74.9791 156.908 74.0548 156.908 73.1093C156.898 71.8475 156.39 70.6409 155.494 69.7515C154.599 68.8621 153.39 68.3617 152.128 68.3591V68.3287Z" fill="#231F20"/>
<path d="M149.588 77.2505C149.588 77.2505 155.749 87.4005 154.318 89.4305C152.887 91.4605 148.441 89.8974 148.441 89.8974" fill="white"/>
<path d="M151.648 90.9226C150.5 90.8944 149.361 90.6995 148.268 90.344C148.142 90.2982 148.039 90.2041 147.982 90.0822C147.924 89.9604 147.918 89.8209 147.964 89.6944C148.008 89.5685 148.099 89.4648 148.219 89.406C148.339 89.3471 148.477 89.3377 148.603 89.3798C149.74 89.7756 152.907 90.4861 153.902 89.0956C154.754 87.908 151.638 81.615 149.151 77.5144C149.081 77.3987 149.06 77.2598 149.093 77.1285C149.125 76.9972 149.208 76.8841 149.324 76.8141C149.44 76.7441 149.578 76.7229 149.71 76.7553C149.841 76.7876 149.954 76.8709 150.024 76.9866C151.039 78.7324 156.277 87.5325 154.724 89.6944C154.347 90.1301 153.871 90.469 153.335 90.6827C152.8 90.8964 152.222 90.9787 151.648 90.9226Z" fill="#231F20"/>
<path d="M148.697 64.1266C152.757 67.6892 151.245 74.8145 151.032 79.4937C150.727 86.0573 150.271 92.6142 149.662 99.1644C149.286 103.316 138.497 102.991 136.639 101.671L138.923 112.075L115.375 108.624L116.826 95.0638C116.826 95.0638 115.314 76.1645 119.871 67.8516C124.429 59.5388 133.361 60.2899 133.361 60.2899C133.361 60.2899 144.759 60.635 148.697 64.1266Z" fill="white"/>
<path d="M138.921 112.583H138.85L115.302 109.132C115.172 109.112 115.054 109.043 114.973 108.939C114.892 108.835 114.854 108.705 114.865 108.573L116.317 95.0131C116.256 94.3229 114.855 75.9615 119.413 67.6081C124.051 59.0821 133.298 59.7824 133.399 59.7926C133.846 59.7926 145.011 60.1986 149.03 63.7511C152.573 66.8773 152.075 72.4801 151.72 76.9461C151.639 77.8494 151.568 78.702 151.537 79.4836C151.233 86.01 150.776 92.6786 150.218 99.205C150.124 99.8445 149.854 100.445 149.438 100.94C149.022 101.435 148.477 101.804 147.863 102.006C144.96 103.336 139.824 103.255 137.398 102.524L139.428 111.953C139.445 112.028 139.445 112.105 139.428 112.18C139.411 112.254 139.377 112.323 139.329 112.383C139.281 112.442 139.221 112.49 139.152 112.523C139.083 112.556 139.007 112.573 138.931 112.573L138.921 112.583ZM115.931 108.198L138.261 111.466L136.13 101.783C136.108 101.684 136.117 101.581 136.155 101.487C136.193 101.392 136.259 101.312 136.343 101.255C136.428 101.196 136.529 101.165 136.632 101.165C136.735 101.165 136.836 101.196 136.921 101.255C138.139 102.108 144.209 102.534 147.376 101.083C148.472 100.575 149.071 99.9155 149.152 99.0528C149.751 92.5365 150.167 85.9288 150.512 79.4024C150.512 78.6107 150.624 77.7479 150.695 76.8344C151.06 72.5613 151.507 67.2325 148.35 64.4514C144.595 61.1324 133.44 60.7467 133.328 60.7365C133.217 60.7264 124.609 60.1072 120.296 68.0242C115.88 76.1442 117.251 94.7695 117.322 94.9623L115.931 108.198Z" fill="#231F20"/>
<path d="M110.754 111.821L112.967 104.635L141.864 107.437L143.528 114.024C143.528 114.024 128.425 121.21 110.754 111.821Z" fill="white"/>
<path d="M129.696 117.13C122.999 117.116 116.409 115.446 110.513 112.268C110.409 112.212 110.328 112.122 110.284 112.012C110.239 111.903 110.234 111.782 110.269 111.669L112.482 104.493C112.516 104.383 112.587 104.287 112.683 104.223C112.779 104.158 112.895 104.128 113.01 104.138L141.917 106.929C142.022 106.939 142.122 106.981 142.202 107.05C142.282 107.12 142.339 107.212 142.364 107.315L144.018 113.902C144.046 114.017 144.035 114.138 143.985 114.245C143.935 114.352 143.85 114.439 143.744 114.491C139.284 116.296 134.508 117.194 129.696 117.13ZM111.366 111.568C116.174 114.143 121.475 115.668 126.917 116.04C132.358 116.413 137.817 115.625 142.932 113.73L141.47 107.904L113.325 105.183L111.366 111.568Z" fill="#231F20"/>
<path d="M124.844 96.769C124.844 107.934 136.07 130.477 126.458 139.399C117.414 147.732 101.915 149.914 90.1513 148.635C73.0485 146.788 64.1267 134.933 71.1302 118.307C74.5507 110.187 80.5798 103.498 85.6142 96.2716C90.0567 89.8979 93.7807 83.0524 96.7183 75.86C99.2254 69.77 101.093 62.665 104.453 57.0013C111.933 44.4153 125.118 39.4925 138.963 43.5525C144.911 45.2882 156.36 52.4541 153.548 60.2087C152.858 62.1169 150.503 64.9589 148.676 64.157C148.138 67.8415 145.773 69.6076 142.891 71.9624C140.008 74.3172 136.669 76.0224 133.563 78.0524C131.371 79.3596 129.458 81.0838 127.93 83.1274C126.092 85.8273 125.443 89.1463 125.098 92.3943C124.932 93.8467 124.847 95.3072 124.844 96.769Z" fill="white"/>
<path d="M96.4724 149.427C94.3533 149.429 92.2357 149.317 90.1286 149.092C81.0748 148.077 74.183 144.342 70.732 138.465C67.4434 132.883 67.4332 125.828 70.732 118.064C73.239 112.106 77.1772 106.899 80.9936 101.763C82.4248 99.8647 83.8965 97.8956 85.2668 95.9265C89.671 89.5842 93.3641 82.7766 96.2795 75.6265C97.1017 73.5965 97.8426 71.5665 98.6343 69.3335C100.033 64.9593 101.844 60.728 104.044 56.6968C111.525 44.1108 124.974 38.8734 139.153 43.0247C143.507 44.3036 150.856 48.4651 153.526 53.733C154.08 54.7325 154.416 55.8386 154.511 56.9778C154.605 58.1171 154.456 59.2634 154.074 60.3406C153.433 62.1184 152.167 63.6015 150.511 64.5123C150.081 64.7144 149.603 64.7952 149.131 64.7457C148.44 68.0952 146.207 69.9121 143.65 72.003L143.264 72.3075C141.299 73.8366 139.23 75.2271 137.072 76.469C136.057 77.1084 134.931 77.758 133.885 78.499C131.754 79.7825 129.892 81.4683 128.404 83.4623C126.547 86.1927 125.968 89.5523 125.643 92.4958C125.495 93.929 125.421 95.3688 125.42 96.8096C125.42 100.372 126.608 105.204 127.866 110.319C130.546 121.22 133.581 133.573 126.851 139.754C118.995 146.91 106.693 149.427 96.4724 149.427ZM129.683 42.6492C119.533 42.6492 110.479 47.8155 104.887 57.2246C102.719 61.201 100.935 65.3745 99.558 69.6888C98.8069 71.8 98.0253 73.9924 97.193 76.0224C94.229 83.2365 90.4851 90.1048 86.028 96.5051C84.6476 98.5351 83.1657 100.464 81.7346 102.372C77.9588 107.447 74.051 112.613 71.5846 118.46C68.4482 125.91 68.4381 132.67 71.5846 137.948C74.8732 143.54 81.491 147.143 90.22 148.098C100.969 149.255 116.813 147.57 126.131 138.963C132.403 133.177 129.44 121.139 126.831 110.543C125.562 105.366 124.365 100.474 124.354 96.7893C124.353 95.311 124.431 93.8338 124.588 92.3639C124.923 89.3189 125.522 85.7867 127.511 82.8736C129.077 80.766 131.039 78.9837 133.286 77.6261C134.301 76.9359 135.438 76.266 136.494 75.5961C138.614 74.3826 140.648 73.0261 142.584 71.5361L142.97 71.2214C145.609 69.0696 147.699 67.3746 148.187 64.0555C148.196 63.9773 148.224 63.9025 148.268 63.8372C148.312 63.7719 148.371 63.718 148.44 63.68C148.51 63.6473 148.587 63.6304 148.664 63.6304C148.741 63.6304 148.817 63.6473 148.887 63.68C149.078 63.7524 149.283 63.7844 149.487 63.7739C149.692 63.7634 149.892 63.7107 150.075 63.6191C151.476 62.8115 152.553 61.541 153.12 60.026C153.45 59.0774 153.576 58.0694 153.488 57.0687C153.401 56.0679 153.102 55.097 152.612 54.2202C150.085 49.2264 143.051 45.2577 138.869 44.0702C135.891 43.1586 132.797 42.68 129.683 42.6492Z" fill="#231F20"/>
<path d="M149.691 94.2619C149.691 94.2619 144.484 97.1953 141.977 91.8259L149.691 94.2619Z" fill="white"/>
<path d="M146.564 95.5713C146.006 95.5741 145.451 95.4885 144.92 95.3175C144.151 95.0451 143.449 94.6117 142.861 94.0463C142.273 93.481 141.812 92.7967 141.509 92.0391C141.454 91.9165 141.45 91.7773 141.498 91.6517C141.545 91.5261 141.641 91.4245 141.763 91.3692C141.884 91.3136 142.023 91.308 142.148 91.3536C142.273 91.3991 142.376 91.4923 142.433 91.6128C142.677 92.2412 143.053 92.8105 143.534 93.283C144.015 93.7554 144.591 94.1202 145.224 94.3533C146.65 94.6942 148.152 94.5029 149.447 93.8153C149.505 93.7782 149.57 93.7534 149.638 93.7423C149.706 93.7312 149.776 93.7341 149.843 93.7509C149.909 93.7676 149.972 93.7978 150.027 93.8396C150.082 93.8815 150.128 93.934 150.162 93.9941C150.195 94.0543 150.217 94.1206 150.224 94.1892C150.231 94.2578 150.225 94.3272 150.204 94.3931C150.184 94.459 150.15 94.5201 150.106 94.5726C150.061 94.625 150.006 94.6678 149.944 94.6984C148.902 95.2533 147.744 95.5525 146.564 95.5713Z" fill="#231F20"/>
<path d="M122.519 80.7015H122.377C122.313 80.6829 122.253 80.6518 122.201 80.6101C122.15 80.5683 122.106 80.5168 122.074 80.4584C122.01 80.3403 121.994 80.2014 122.032 80.0722C122.956 76.8344 123.595 76.7836 123.869 76.7633C124.387 76.7633 145.996 74.0634 157.364 72.6526C157.43 72.6441 157.498 72.649 157.562 72.6671C157.626 72.6851 157.686 72.7159 157.738 72.7575C157.79 72.7992 157.833 72.8509 157.865 72.9096C157.897 72.9683 157.916 73.0328 157.922 73.0992C157.94 73.2324 157.903 73.367 157.822 73.4736C157.74 73.5801 157.619 73.6499 157.486 73.6676C156.177 73.83 126.112 77.5449 124.052 77.7276C123.599 78.5408 123.257 79.4114 123.037 80.3158C123.011 80.4312 122.944 80.5334 122.849 80.6041C122.754 80.6748 122.637 80.7093 122.519 80.7015Z" fill="#231F20"/>
<path d="M136.831 80.935C136.709 79.2849 136.133 77.7008 135.167 76.3573C134.565 75.2347 133.799 74.2083 132.893 73.3123C132.437 72.8644 131.888 72.5236 131.284 72.3147C130.68 72.1057 130.037 72.0339 129.402 72.1045C128.846 72.2192 128.321 72.4516 127.862 72.786C127.404 73.1204 127.022 73.549 126.742 74.0431C126.192 75.0318 125.869 76.1312 125.798 77.2607C125.585 79.7367 126.029 82.2253 127.086 84.4747C128.142 86.724 129.775 88.6542 131.817 90.07L131.472 89.664" fill="white"/>
<path d="M131.817 90.5369C131.715 90.535 131.616 90.5032 131.533 90.4455C129.433 88.9804 127.753 86.9921 126.658 84.6777C125.563 82.3633 125.092 79.8031 125.291 77.2505C125.358 76.0404 125.705 74.8625 126.306 73.8097C126.624 73.2462 127.061 72.7591 127.587 72.3821C128.113 72.0052 128.715 71.7477 129.351 71.6274C130.062 71.542 130.784 71.6181 131.462 71.8501C132.141 72.082 132.758 72.4639 133.268 72.9672C134.211 73.9097 135.008 74.9872 135.633 76.1645C136.649 77.5866 137.25 79.2626 137.369 81.006C137.371 81.0735 137.358 81.1405 137.332 81.2029C137.307 81.2653 137.268 81.3217 137.22 81.3684C137.171 81.4152 137.113 81.4513 137.05 81.4746C136.986 81.4978 136.919 81.5076 136.851 81.5034C136.784 81.5034 136.718 81.4899 136.656 81.4637C136.595 81.4374 136.539 81.3989 136.492 81.3506C136.446 81.3022 136.41 81.245 136.386 81.1823C136.362 81.1196 136.351 81.0527 136.354 80.9857C136.216 79.4348 135.666 77.9491 134.76 76.6821C134.188 75.5949 133.455 74.5994 132.588 73.7285C132.193 73.3321 131.715 73.0282 131.189 72.8386C130.662 72.6491 130.1 72.5786 129.543 72.6323C129.061 72.7385 128.606 72.9453 128.209 73.2391C127.812 73.5329 127.482 73.9072 127.239 74.3375C126.717 75.2714 126.418 76.3136 126.366 77.3825C126.187 79.6181 126.561 81.8635 127.455 83.9204C128.349 85.9774 129.735 87.7826 131.492 89.1768C131.572 89.1722 131.651 89.1853 131.725 89.2152C131.798 89.245 131.865 89.2908 131.918 89.3493L132.264 89.7655C132.344 89.8564 132.389 89.9738 132.389 90.0953C132.389 90.2169 132.344 90.3342 132.264 90.4252C132.202 90.4763 132.13 90.513 132.053 90.5323C131.976 90.5516 131.895 90.5532 131.817 90.5369Z" fill="#231F20"/>
<path d="M147.884 74.4217C148.394 74.4137 148.791 73.353 148.771 72.0527C148.75 70.7523 148.32 69.7047 147.81 69.7127C147.3 69.7207 146.903 70.7813 146.924 72.0817C146.944 73.382 147.374 74.4297 147.884 74.4217Z" fill="#231F20"/>
<path d="M152.247 241.741C135.855 237.235 129.521 224.283 128.029 208.378C126.72 194.463 130.364 173.29 120.122 162.094C112.337 153.589 96.3816 151.609 85.4907 151.944C67.5658 152.553 60.3796 167.575 58.6845 183.48C57.0699 199.451 57.3151 215.555 59.4153 231.47C60.6638 241.376 60.9175 263.28 74.1937 265.35C104.025 269.989 142.584 268.395 172.557 267.624C176.404 267.533 180.454 267.39 183.722 265.462C186.29 263.96 187.63 261.635 186.392 258.773C185.59 257.179 184.434 255.79 183.012 254.713C175.42 248.319 165.615 245.335 156.084 242.746L152.247 241.741Z" fill="#231F20"/>
<path d="M126.762 269.055C108.492 269.055 89.9884 268.355 74.1239 265.888C62.1469 264.021 60.4722 247.06 59.376 235.844C59.2237 234.271 59.0816 232.799 58.9192 231.581C56.819 215.619 56.5738 199.468 58.1884 183.45C59.4369 171.808 64.6337 152.178 85.4919 151.467C108.532 150.686 118.124 159.131 120.509 161.739C128.193 170.143 128.193 183.988 128.203 196.249C128.203 200.614 128.203 204.735 128.548 208.368C130.253 226.567 138.059 237.336 152.391 241.285L154.786 241.934L156.248 242.33C166.195 245.02 175.756 247.974 183.368 254.398C184.851 255.525 186.056 256.976 186.89 258.641C188.129 261.504 187.083 264.173 184.008 265.969C180.516 267.999 176.121 268.121 172.579 268.203L163.261 268.446C151.903 268.71 139.409 269.055 126.762 269.055ZM88.0294 152.452C87.1768 152.452 86.3445 152.452 85.5224 152.452C65.4355 153.132 60.4113 172.214 59.2034 183.531C57.5796 199.477 57.8078 215.556 59.8835 231.449C60.0459 232.708 60.188 234.159 60.3504 235.743C61.3654 246.654 63.0401 263.148 74.2457 264.883C101.011 269.055 135.491 268.142 163.19 267.401L172.518 267.157C176.111 267.076 180.191 266.974 183.46 265.066C184.972 264.183 187.296 262.214 185.916 258.976C185.146 257.457 184.038 256.134 182.678 255.109C175.218 248.816 165.778 245.903 155.943 243.234L154.481 242.848L152.086 242.198C137.287 238.138 129.249 227.065 127.493 208.389C127.148 204.704 127.148 200.563 127.148 196.209C127.148 184.171 127.148 170.539 119.718 162.429C112.988 155.03 99.3771 152.452 88.0294 152.452Z" fill="#231F20"/>
<path d="M328.554 223.39H241.609V264.366H328.554V223.39Z" fill="white"/>
<path d="M328.566 264.863H241.57C241.435 264.863 241.306 264.81 241.211 264.715C241.116 264.619 241.062 264.49 241.062 264.356V223.39C241.062 223.256 241.116 223.127 241.211 223.031C241.306 222.936 241.435 222.883 241.57 222.883H328.525C328.66 222.883 328.789 222.936 328.884 223.031C328.979 223.127 329.033 223.256 329.033 223.39V264.356C329.033 264.483 328.985 264.607 328.899 264.701C328.812 264.795 328.693 264.853 328.566 264.863ZM242.118 263.848H328.058V223.898H242.118V263.848Z" fill="#231F20"/>
<path d="M241.608 223.39H231.266V264.366H241.608V223.39Z" fill="white"/>
<path d="M241.568 264.863H231.265C231.131 264.863 231.002 264.81 230.906 264.715C230.811 264.619 230.758 264.49 230.758 264.356V223.39C230.758 223.256 230.811 223.127 230.906 223.031C231.002 222.936 231.131 222.883 231.265 222.883H241.568C241.702 222.883 241.831 222.936 241.926 223.031C242.022 223.127 242.075 223.256 242.075 223.39V264.356C242.075 264.49 242.022 264.619 241.926 264.715C241.831 264.81 241.702 264.863 241.568 264.863ZM231.732 263.848H241.06V223.898H231.732V263.848Z" fill="#231F20"/>
<path d="M226.717 92.5872H213.137L214.03 79.0065H227.611L226.717 92.5872Z" fill="white"/>
<path d="M226.72 93.115H213.149C213.079 93.1143 213.009 93.0996 212.945 93.0717C212.88 93.0438 212.822 93.0033 212.773 92.9526C212.728 92.9018 212.693 92.8425 212.67 92.778C212.647 92.7136 212.638 92.6453 212.641 92.577L213.535 78.9862C213.545 78.8588 213.603 78.7399 213.697 78.6533C213.791 78.5667 213.914 78.5189 214.042 78.5193H227.623C227.692 78.5181 227.762 78.531 227.826 78.5571C227.891 78.5833 227.949 78.6222 227.998 78.6715C228.091 78.7778 228.139 78.9164 228.13 79.0572L227.237 92.6379C227.227 92.7681 227.168 92.8895 227.072 92.978C226.976 93.0665 226.85 93.1154 226.72 93.115ZM213.677 92.1H226.242L227.075 79.5343H214.509L213.677 92.1Z" fill="#D1D3D4"/>
<path d="M248.909 92.5872H235.328L236.983 67.4558H250.563L248.909 92.5872Z" fill="white"/>
<path d="M248.905 93.115H235.324C235.255 93.1137 235.188 93.0987 235.125 93.0708C235.062 93.0429 235.005 93.0028 234.958 92.9527C234.91 92.9026 234.873 92.8435 234.849 92.779C234.825 92.7145 234.814 92.6459 234.817 92.5771L236.492 67.4254C236.502 67.297 236.559 67.1769 236.653 67.0887C236.747 67.0005 236.87 66.9504 236.999 66.9483H250.58C250.65 66.9481 250.719 66.9624 250.784 66.9904C250.848 67.0184 250.906 67.0595 250.954 67.111C251.001 67.1625 251.038 67.2234 251.061 67.2897C251.084 67.356 251.093 67.4264 251.087 67.4964L249.433 92.6177C249.432 92.6852 249.417 92.7518 249.389 92.8135C249.362 92.8753 249.323 92.9309 249.273 92.9773C249.224 93.0236 249.166 93.0596 249.103 93.0833C249.04 93.1069 248.972 93.1177 248.905 93.115ZM235.872 92.1H248.438L250.022 67.9836H237.507L235.872 92.1Z" fill="#D1D3D4"/>
<path d="M271.581 92.0886H258L260.304 57H273.885L271.581 92.0886Z" fill="#125B50"/>
<path d="M300.194 68.9783H281.741C281.337 68.9783 280.95 68.8179 280.665 68.5324C280.379 68.2468 280.219 67.8596 280.219 67.4558C280.219 67.052 280.379 66.6647 280.665 66.3792C280.95 66.0937 281.337 65.9333 281.741 65.9333H300.194C300.598 65.9333 300.985 66.0937 301.271 66.3792C301.556 66.6647 301.716 67.052 301.716 67.4558C301.716 67.8596 301.556 68.2468 301.271 68.5324C300.985 68.8179 300.598 68.9783 300.194 68.9783Z" fill="#D1D3D4"/>
<path d="M299.688 76.5705H281.245C280.841 76.5705 280.454 76.4101 280.169 76.1246C279.883 75.8391 279.723 75.4518 279.723 75.048C279.723 74.6442 279.883 74.257 280.169 73.9714C280.454 73.6859 280.841 73.5255 281.245 73.5255H299.688C300.092 73.5255 300.479 73.6859 300.764 73.9714C301.05 74.257 301.21 74.6442 301.21 75.048C301.21 75.4518 301.05 75.8391 300.764 76.1246C300.479 76.4101 300.092 76.5705 299.688 76.5705Z" fill="#D1D3D4"/>
<path d="M294.43 84.1525H280.737C280.334 84.1525 279.946 83.9921 279.661 83.7066C279.375 83.4211 279.215 83.0338 279.215 82.63C279.215 82.2263 279.375 81.839 279.661 81.5535C279.946 81.2679 280.334 81.1075 280.737 81.1075H294.43C294.833 81.1075 295.221 81.2679 295.506 81.5535C295.792 81.839 295.952 82.2263 295.952 82.63C295.952 83.0338 295.792 83.4211 295.506 83.7066C295.221 83.9921 294.833 84.1525 294.43 84.1525Z" fill="#D1D3D4"/>
<path d="M223.297 111.547H211.919C211.85 111.548 211.782 111.533 211.719 111.505C211.656 111.477 211.6 111.436 211.554 111.385C211.504 111.335 211.465 111.274 211.441 111.208C211.416 111.141 211.406 111.07 211.411 110.999L212.01 102.017C212.016 101.888 212.07 101.767 212.163 101.678C212.256 101.589 212.379 101.539 212.508 101.539H223.845C223.915 101.539 223.985 101.554 224.049 101.582C224.114 101.61 224.172 101.651 224.219 101.702C224.267 101.754 224.303 101.815 224.326 101.881C224.349 101.947 224.358 102.018 224.353 102.088L223.764 111.07C223.755 111.192 223.703 111.307 223.618 111.394C223.532 111.481 223.419 111.536 223.297 111.547ZM212.508 110.532H222.82L223.348 102.554H212.985L212.508 110.532Z" fill="#D1D3D4"/>
<path d="M270.385 105.001H234.616C234.212 105.001 233.825 104.84 233.54 104.555C233.254 104.269 233.094 103.882 233.094 103.478C233.094 103.074 233.254 102.687 233.54 102.402C233.825 102.116 234.212 101.956 234.616 101.956H270.385C270.789 101.956 271.176 102.116 271.461 102.402C271.747 102.687 271.907 103.074 271.907 103.478C271.907 103.882 271.747 104.269 271.461 104.555C271.176 104.84 270.789 105.001 270.385 105.001Z" fill="#D1D3D4"/>
<path d="M262.55 110.137H234.273C233.869 110.137 233.481 109.976 233.196 109.691C232.91 109.405 232.75 109.018 232.75 108.614C232.75 108.21 232.91 107.823 233.196 107.537C233.481 107.252 233.869 107.092 234.273 107.092H262.55C262.954 107.092 263.341 107.252 263.627 107.537C263.912 107.823 264.073 108.21 264.073 108.614C264.073 109.018 263.912 109.405 263.627 109.691C263.341 109.976 262.954 110.137 262.55 110.137Z" fill="#D1D3D4"/>
<path d="M216.719 109.568C216.601 109.578 216.482 109.578 216.364 109.568C216.141 109.511 215.933 109.403 215.757 109.254C215.581 109.104 215.442 108.917 215.349 108.705L214.415 106.675C214.325 106.492 214.272 106.293 214.26 106.089C214.249 105.886 214.278 105.682 214.346 105.489C214.415 105.297 214.522 105.121 214.66 104.97C214.798 104.82 214.965 104.699 215.151 104.615C215.337 104.53 215.537 104.484 215.741 104.479C215.945 104.474 216.148 104.51 216.338 104.585C216.528 104.659 216.701 104.772 216.847 104.915C216.993 105.058 217.108 105.228 217.186 105.417L217.308 105.681L219.612 103.793C219.926 103.537 220.328 103.416 220.731 103.457C221.133 103.498 221.503 103.697 221.759 104.011C222.015 104.325 222.135 104.727 222.094 105.13C222.053 105.532 221.854 105.902 221.541 106.158L217.694 109.294C217.41 109.495 217.066 109.591 216.719 109.568Z" fill="#125B50"/>
<path d="M222.224 127.229H210.887C210.818 127.229 210.749 127.215 210.686 127.187C210.624 127.159 210.567 127.118 210.521 127.067C210.426 126.965 210.375 126.83 210.379 126.691L210.978 117.708C210.986 117.579 211.043 117.458 211.137 117.369C211.231 117.28 211.356 117.231 211.485 117.231H222.823C222.892 117.231 222.96 117.245 223.023 117.273C223.086 117.301 223.142 117.342 223.188 117.394C223.236 117.443 223.274 117.502 223.298 117.567C223.323 117.631 223.334 117.7 223.331 117.769L222.732 126.752C222.724 126.881 222.667 127.003 222.573 127.091C222.478 127.18 222.354 127.229 222.224 127.229ZM211.435 126.214H221.757L222.275 118.246H211.952L211.435 126.214Z" fill="#D1D3D4"/>
<path d="M269.36 120.682H233.581C233.177 120.682 232.79 120.522 232.505 120.236C232.219 119.951 232.059 119.564 232.059 119.16C232.059 118.756 232.219 118.369 232.505 118.083C232.79 117.798 233.177 117.637 233.581 117.637H269.36C269.764 117.637 270.151 117.798 270.436 118.083C270.722 118.369 270.882 118.756 270.882 119.16C270.882 119.564 270.722 119.951 270.436 120.236C270.151 120.522 269.764 120.682 269.36 120.682Z" fill="#D1D3D4"/>
<path d="M261.511 125.818H233.233C232.83 125.818 232.442 125.658 232.157 125.372C231.871 125.087 231.711 124.7 231.711 124.296C231.711 123.892 231.871 123.505 232.157 123.219C232.442 122.934 232.83 122.773 233.233 122.773H261.511C261.915 122.773 262.302 122.934 262.588 123.219C262.873 123.505 263.034 123.892 263.034 124.296C263.034 124.7 262.873 125.087 262.588 125.372C262.302 125.658 261.915 125.818 261.511 125.818Z" fill="#D1D3D4"/>
<path d="M215.685 125.25C215.571 125.265 215.455 125.265 215.34 125.25C215.118 125.193 214.912 125.087 214.736 124.939C214.56 124.791 214.42 124.606 214.325 124.397L213.392 122.367C213.31 122.185 213.264 121.988 213.258 121.788C213.253 121.588 213.286 121.388 213.357 121.201C213.429 121.014 213.536 120.843 213.673 120.697C213.811 120.552 213.975 120.434 214.158 120.353C214.34 120.271 214.537 120.225 214.737 120.219C214.938 120.214 215.137 120.247 215.324 120.318C215.511 120.39 215.682 120.497 215.828 120.634C215.973 120.772 216.091 120.936 216.173 121.119L216.284 121.373L218.598 119.495C218.751 119.352 218.931 119.241 219.128 119.171C219.324 119.1 219.534 119.071 219.742 119.085C219.951 119.099 220.154 119.155 220.34 119.251C220.526 119.347 220.69 119.48 220.822 119.642C220.954 119.804 221.051 119.992 221.108 120.193C221.164 120.394 221.178 120.605 221.15 120.812C221.121 121.019 221.05 121.218 220.941 121.397C220.832 121.575 220.688 121.729 220.517 121.85L216.68 124.986C216.389 125.186 216.037 125.279 215.685 125.25Z" fill="#125B50"/>
<path d="M283.772 112.735H277.022C276.951 112.735 276.88 112.72 276.815 112.69C276.75 112.661 276.693 112.617 276.647 112.562C276.598 112.51 276.562 112.447 276.541 112.378C276.52 112.31 276.514 112.237 276.525 112.167C276.996 108.602 278.592 105.28 281.082 102.686C281.571 102.169 282.093 101.684 282.645 101.235C285.387 98.9201 288.798 97.5436 292.379 97.3069C292.45 97.2996 292.522 97.3086 292.589 97.3332C292.655 97.3579 292.716 97.3975 292.765 97.449C292.817 97.5005 292.857 97.5624 292.883 97.6306C292.91 97.6989 292.921 97.7719 292.917 97.8449L292.471 104.584C292.464 104.704 292.416 104.817 292.334 104.904C292.253 104.992 292.143 105.047 292.024 105.062C290.462 105.241 288.979 105.841 287.731 106.797C287.203 107.194 286.719 107.646 286.289 108.147C285.254 109.336 284.553 110.78 284.259 112.329C284.238 112.443 284.178 112.546 284.089 112.62C284 112.694 283.888 112.735 283.772 112.735ZM277.611 111.72H283.356C283.72 110.151 284.462 108.694 285.518 107.477C285.997 106.92 286.535 106.417 287.122 105.975C288.402 105.003 289.9 104.358 291.486 104.097L291.862 98.3524C288.704 98.684 285.72 99.9571 283.295 102.006C282.778 102.437 282.286 102.898 281.823 103.387C279.623 105.685 278.157 108.586 277.611 111.72Z" fill="#D1D3D4"/>
<path d="M291.386 129.219C291.031 129.219 290.686 129.219 290.371 129.219C286.571 129.002 283.001 127.33 280.402 124.549C277.803 121.769 276.375 118.094 276.415 114.288C276.415 114.153 276.468 114.024 276.564 113.929C276.659 113.834 276.788 113.78 276.922 113.78H283.672C283.802 113.78 283.926 113.829 284.021 113.918C284.115 114.007 284.172 114.128 284.18 114.257C284.245 115.754 284.75 117.198 285.631 118.409C285.99 118.905 286.41 119.355 286.88 119.749C288.035 120.706 289.447 121.303 290.94 121.464C291.574 121.535 292.214 121.535 292.848 121.464C294.405 121.277 295.883 120.678 297.131 119.728C297.659 119.332 298.142 118.879 298.572 118.378C299.608 117.189 300.308 115.746 300.602 114.197C300.653 113.882 300.694 113.567 300.714 113.242C300.734 112.918 300.714 112.603 300.714 112.288C300.645 110.796 300.141 109.356 299.263 108.147C299.189 108.049 299.155 107.926 299.168 107.803C299.182 107.681 299.241 107.568 299.334 107.487L304.409 102.707C304.46 102.659 304.521 102.622 304.587 102.599C304.654 102.577 304.724 102.568 304.794 102.575C304.863 102.578 304.931 102.596 304.992 102.627C305.053 102.659 305.107 102.703 305.15 102.757C307.332 105.444 308.51 108.807 308.479 112.268C308.479 112.613 308.479 112.958 308.479 113.283C308.479 113.608 308.428 113.983 308.377 114.298C307.904 117.859 306.307 121.176 303.82 123.768C303.331 124.289 302.809 124.777 302.257 125.23C299.516 127.546 296.104 128.923 292.523 129.158C292.087 129.208 291.731 129.219 291.386 129.219ZM277.41 114.755C277.488 117.808 278.576 120.75 280.505 123.118C280.9 123.604 281.327 124.062 281.784 124.489C284.14 126.688 287.193 127.992 290.412 128.173C291.061 128.214 291.712 128.214 292.361 128.173C295.723 127.945 298.924 126.647 301.496 124.468C302.018 124.043 302.509 123.582 302.967 123.088C305.308 120.648 306.811 117.527 307.261 114.176C307.261 113.851 307.332 113.537 307.352 113.161C307.372 112.786 307.352 112.512 307.352 112.146C307.376 109.109 306.406 106.147 304.591 103.712L300.227 107.772C301.064 109.065 301.544 110.557 301.617 112.095C301.617 112.451 301.617 112.796 301.617 113.11C301.592 113.451 301.547 113.79 301.485 114.125C301.168 115.851 300.394 117.46 299.242 118.784C298.763 119.341 298.225 119.845 297.639 120.287C296.245 121.345 294.595 122.014 292.858 122.225C292.149 122.296 291.435 122.296 290.726 122.225C289.097 122.092 287.538 121.501 286.23 120.52C285.693 120.079 285.215 119.571 284.809 119.008C283.91 117.771 283.356 116.317 283.205 114.795L277.41 114.755Z" fill="#D1D3D4"/>
<path d="M303.363 101.611C300.914 99.3411 297.754 97.9922 294.421 97.7941L293.984 104.544C295.567 104.726 297.062 105.364 298.288 106.381L303.363 101.611Z" fill="#125B50"/>
<path d="M115.474 199.142C115.34 199.142 115.211 199.088 115.115 198.993C115.02 198.898 114.967 198.769 114.967 198.634C114.967 198.452 114.967 179.766 110.907 169.93C106.979 160.288 91.2666 158.217 91.1143 158.197C90.9797 158.181 90.857 158.112 90.7733 158.005C90.6895 157.899 90.6516 157.763 90.6677 157.628C90.6839 157.494 90.7528 157.371 90.8594 157.287C90.966 157.204 91.1015 157.166 91.2361 157.182C91.906 157.263 107.689 159.354 111.851 169.545C115.911 179.552 115.972 197.853 115.972 198.624C115.973 198.691 115.961 198.757 115.937 198.819C115.913 198.881 115.876 198.938 115.83 198.986C115.784 199.034 115.729 199.073 115.668 199.099C115.607 199.126 115.541 199.141 115.474 199.142Z" fill="white"/>
</g>
<defs>
<filter id="filter0_d_722_463" x="42.1367" y="30.6252" width="309.293" height="257.43" filterUnits="userSpaceOnUse" color-interpolation-filters="sRGB">
<feFlood flood-opacity="0" result="BackgroundImageFix"/>
<feColorMatrix in="SourceAlpha" type="matrix" values="0 0 0 0 0 0 0 0 0 0 0 0 0 0 0 0 0 0 127 0" result="hardAlpha"/>
<feOffset dy="4"/>
<feGaussianBlur stdDeviation="7.5"/>
<feComposite in2="hardAlpha" operator="out"/>
<feColorMatrix type="matrix" values="0 0 0 0 0 0 0 0 0 0 0 0 0 0 0 0 0 0 0.15 0"/>
<feBlend mode="normal" in2="BackgroundImageFix" result="effect1_dropShadow_722_463"/>
<feBlend mode="normal" in="SourceGraphic" in2="effect1_dropShadow_722_463" result="shape"/>
</filter>
</defs>
</svg>
