<svg width="269" height="257" viewBox="0 0 269 257" fill="none" xmlns="http://www.w3.org/2000/svg">
<circle cx="144.5" cy="118.5" r="118.5" fill="#125B50"/>
<path d="M263.709 187.714H4.4375V242.342H263.709V187.714Z" fill="white"/>
<path d="M263.707 242.819H4.43565C4.31182 242.819 4.19306 242.769 4.1055 242.682C4.01794 242.594 3.96875 242.476 3.96875 242.352V187.765C3.96875 187.704 3.98083 187.643 4.00429 187.586C4.02776 187.53 4.06214 187.478 4.1055 187.435C4.14885 187.391 4.20033 187.357 4.25698 187.334C4.31362 187.31 4.37433 187.298 4.43565 187.298H263.707C263.769 187.298 263.829 187.31 263.886 187.334C263.943 187.357 263.994 187.391 264.037 187.435C264.081 187.478 264.115 187.53 264.139 187.586C264.162 187.643 264.174 187.704 264.174 187.765V242.402C264.162 242.517 264.107 242.623 264.021 242.7C263.934 242.777 263.823 242.819 263.707 242.819ZM4.88225 241.885H263.24V188.181H4.90255L4.88225 241.885Z" fill="#D1D3D4"/>
<path d="M263.658 187.714H4.48815C2.2683 187.714 0.46875 189.514 0.46875 191.734V192.505C0.46875 194.725 2.2683 196.524 4.48815 196.524H263.658C265.878 196.524 267.678 194.725 267.678 192.505V191.734C267.678 189.514 265.878 187.714 263.658 187.714Z" fill="white"/>
<path d="M263.656 196.991H4.4863C3.29646 196.991 2.15535 196.519 1.314 195.677C0.472661 194.836 0 193.695 0 192.505V191.744C-3.03383e-06 190.553 0.472331 189.411 1.31339 188.568C2.15444 187.725 3.29553 187.25 4.4863 187.247H263.656C264.847 187.25 265.988 187.725 266.829 188.568C267.67 189.411 268.143 190.553 268.143 191.744V192.505C268.143 193.094 268.027 193.678 267.801 194.222C267.576 194.766 267.245 195.261 266.829 195.677C266.412 196.094 265.918 196.424 265.373 196.65C264.829 196.875 264.246 196.991 263.656 196.991V196.991ZM4.4863 188.181C3.54318 188.184 2.63961 188.56 1.97368 189.228C1.30775 189.896 0.933794 190.801 0.933798 191.744V192.505C0.933798 193.447 1.30808 194.351 1.9743 195.017C2.64052 195.683 3.54412 196.058 4.4863 196.058H263.656C264.599 196.058 265.502 195.683 266.168 195.017C266.835 194.351 267.209 193.447 267.209 192.505V191.744C267.209 190.801 266.835 189.896 266.169 189.228C265.503 188.56 264.6 188.184 263.656 188.181H4.4863Z" fill="#D1D3D4"/>
<path d="M103.713 173.667H22.5234V187.237H103.713V173.667Z" fill="#231F20"/>
<path d="M103.713 187.684H22.513C22.3946 187.684 22.281 187.637 22.1972 187.553C22.1135 187.469 22.0664 187.356 22.0664 187.237V173.667C22.0664 173.548 22.1135 173.435 22.1972 173.351C22.281 173.267 22.3946 173.22 22.513 173.22H103.713C103.831 173.22 103.945 173.267 104.029 173.351C104.113 173.435 104.16 173.548 104.16 173.667V187.237C104.16 187.356 104.113 187.469 104.029 187.553C103.945 187.637 103.831 187.684 103.713 187.684V187.684ZM22.9698 186.75H103.266V174.113H22.9698V186.75Z" fill="#231F20"/>
<path d="M103.701 173.667H59.457V187.237H103.701V173.667Z" fill="white"/>
<path d="M103.711 187.704H59.4567C59.3347 187.701 59.2185 187.651 59.1331 187.564C59.0478 187.477 59 187.359 59 187.237V173.667C59 173.546 59.0481 173.429 59.1338 173.344C59.2194 173.258 59.3356 173.21 59.4567 173.21H103.711C103.832 173.21 103.948 173.258 104.034 173.344C104.119 173.429 104.167 173.546 104.167 173.667V187.237C104.168 187.359 104.12 187.477 104.034 187.564C103.949 187.651 103.833 187.701 103.711 187.704ZM59.9744 186.75H103.295V174.134H59.9744V186.75Z" fill="#231F20"/>
<path d="M102.535 163.841H36.793V173.9H102.535V163.841Z" fill="#231F20"/>
<path d="M102.536 174.347H36.7943C36.6758 174.347 36.5622 174.3 36.4785 174.216C36.3947 174.132 36.3477 174.019 36.3477 173.9V163.841C36.3477 163.723 36.3947 163.609 36.4785 163.526C36.5622 163.442 36.6758 163.395 36.7943 163.395H102.536C102.655 163.395 102.77 163.442 102.855 163.525C102.941 163.608 102.99 163.722 102.993 163.841V173.9C102.993 173.96 102.981 174.019 102.958 174.073C102.935 174.128 102.901 174.178 102.858 174.22C102.816 174.261 102.765 174.294 102.71 174.316C102.654 174.337 102.595 174.348 102.536 174.347V174.347ZM37.2409 173.453H102.089V164.318H37.2409V173.453Z" fill="#231F20"/>
<path d="M102.533 163.841H74.4688V173.9H102.533V163.841Z" fill="white"/>
<path d="M102.536 174.367H74.4708C74.347 174.367 74.2282 174.318 74.1406 174.23C74.0531 174.143 74.0039 174.024 74.0039 173.9V163.841C74.0065 163.718 74.0565 163.601 74.1435 163.514C74.2305 163.427 74.3478 163.377 74.4708 163.375H102.536C102.659 163.375 102.778 163.424 102.866 163.511C102.953 163.599 103.002 163.718 103.002 163.841V173.9C103.004 173.962 102.993 174.023 102.97 174.08C102.947 174.138 102.912 174.19 102.869 174.233C102.825 174.277 102.773 174.311 102.716 174.334C102.659 174.357 102.597 174.368 102.536 174.367V174.367ZM74.9377 173.443H102.079V164.308H74.9377V173.443Z" fill="#231F20"/>
<path d="M93.2572 154.067H27.5156V164.126H93.2572V154.067Z" fill="#231F20"/>
<path d="M93.2694 164.572H27.4974C27.3789 164.572 27.2653 164.525 27.1816 164.441C27.0978 164.358 27.0508 164.244 27.0508 164.126V154.067C27.0508 153.949 27.0978 153.835 27.1816 153.751C27.2653 153.667 27.3789 153.62 27.4974 153.62H93.2694C93.3878 153.62 93.5014 153.667 93.5852 153.751C93.6689 153.835 93.716 153.949 93.716 154.067V164.126C93.716 164.244 93.6689 164.358 93.5852 164.441C93.5014 164.525 93.3878 164.572 93.2694 164.572ZM27.9643 163.679H92.8228V154.544H27.9643V163.679Z" fill="#231F20"/>
<path d="M93.2601 154.067H65.1953V164.126H93.2601V154.067Z" fill="white"/>
<path d="M93.27 164.593H65.1951C65.1343 164.593 65.0741 164.58 65.018 164.557C64.9619 164.533 64.9111 164.499 64.8685 164.455C64.826 164.412 64.7926 164.36 64.7702 164.304C64.7479 164.247 64.737 164.186 64.7384 164.126V154.067C64.7384 153.945 64.7862 153.828 64.8715 153.74C64.9569 153.653 65.0731 153.603 65.1951 153.6H93.27C93.3921 153.603 93.5083 153.653 93.5936 153.74C93.679 153.828 93.7268 153.945 93.7268 154.067V164.126C93.7281 164.186 93.7173 164.247 93.695 164.304C93.6726 164.36 93.6392 164.412 93.5966 164.455C93.5541 164.499 93.5033 164.533 93.4472 164.557C93.3911 164.58 93.3309 164.593 93.27 164.593V164.593ZM65.662 163.669H92.8031V154.534H65.662V163.669Z" fill="#231F20"/>
<path d="M60.1878 161.314C61.3593 161.314 62.3091 160.364 62.3091 159.193C62.3091 158.021 61.3593 157.071 60.1878 157.071C59.0162 157.071 58.0664 158.021 58.0664 159.193C58.0664 160.364 59.0162 161.314 60.1878 161.314Z" fill="white"/>
<path d="M60.1898 161.781C59.6779 161.781 59.1775 161.629 58.7519 161.345C58.3262 161.06 57.9945 160.656 57.7986 160.183C57.6027 159.71 57.5514 159.19 57.6513 158.688C57.7512 158.186 57.9977 157.725 58.3596 157.363C58.7216 157.001 59.1828 156.754 59.6849 156.654C60.1869 156.554 60.7073 156.606 61.1803 156.802C61.6532 156.997 62.0575 157.329 62.3419 157.755C62.6263 158.18 62.7781 158.681 62.7781 159.193C62.7781 159.879 62.5054 160.538 62.02 161.023C61.5346 161.508 60.8763 161.781 60.1898 161.781V161.781ZM60.1898 157.538C59.8626 157.538 59.5427 157.635 59.2706 157.817C58.9986 157.999 58.7865 158.257 58.6613 158.56C58.5361 158.862 58.5033 159.195 58.5672 159.516C58.631 159.836 58.7886 160.131 59.0199 160.363C59.2513 160.594 59.5461 160.752 59.867 160.815C60.188 160.879 60.5206 160.846 60.8229 160.721C61.1252 160.596 61.3836 160.384 61.5654 160.112C61.7472 159.84 61.8443 159.52 61.8443 159.193C61.8416 158.755 61.6664 158.336 61.3567 158.026C61.047 157.716 60.6278 157.541 60.1898 157.538Z" fill="#231F20"/>
<path d="M43.2091 172.662C43.0861 172.659 42.9688 172.609 42.8818 172.522C42.7948 172.435 42.7448 172.318 42.7422 172.195V165.435C42.7422 165.374 42.7543 165.313 42.7777 165.256C42.8012 165.2 42.8356 165.148 42.8789 165.105C42.9223 165.061 42.9738 165.027 43.0304 165.004C43.0871 164.98 43.1478 164.968 43.2091 164.968C43.2708 164.967 43.3321 164.978 43.3894 165.001C43.4467 165.024 43.4987 165.058 43.5423 165.102C43.586 165.145 43.6203 165.197 43.6433 165.255C43.6662 165.312 43.6774 165.373 43.676 165.435V172.246C43.6634 172.36 43.6088 172.467 43.5225 172.543C43.4363 172.62 43.3246 172.662 43.2091 172.662Z" fill="white"/>
<path d="M52.0099 186.111C51.9486 186.111 51.8878 186.098 51.8312 186.075C51.7745 186.052 51.7231 186.017 51.6797 185.974C51.6364 185.93 51.602 185.879 51.5785 185.822C51.555 185.766 51.543 185.705 51.543 185.644V175.017C51.5596 174.903 51.6165 174.8 51.7031 174.725C51.7898 174.65 51.9004 174.609 52.0149 174.609C52.1294 174.609 52.2401 174.65 52.3268 174.725C52.4134 174.8 52.4703 174.903 52.4869 175.017V185.644C52.4869 185.706 52.4745 185.767 52.4504 185.825C52.4263 185.882 52.391 185.934 52.3466 185.977C52.3022 186.021 52.2495 186.055 52.1917 186.078C52.1338 186.101 52.072 186.112 52.0099 186.111V186.111Z" fill="white"/>
<path d="M64.4023 35.3526L67.9447 32.6121L82.8753 38.834L113.214 28.5825L115.954 32.7745L84.2151 50.9734L64.4023 35.3526Z" fill="#E6E7E8"/>
<path d="M75.5143 84.164L63.2734 34.0534L82.7817 42.4475L118.002 29.6889L127.066 80.2968L94.6166 91.4821L75.5143 84.164Z" fill="white"/>
<path d="M94.617 91.949C94.5633 91.9587 94.5083 91.9587 94.4546 91.949L75.3523 84.6308C75.2827 84.6028 75.2208 84.5588 75.1714 84.5024C75.122 84.446 75.0866 84.3787 75.0681 84.306L62.8171 34.165C62.7974 34.0823 62.8012 33.9957 62.8281 33.915C62.855 33.8343 62.9039 33.7627 62.9693 33.7083C63.0346 33.65 63.1156 33.6122 63.2022 33.5996C63.2889 33.5869 63.3773 33.6 63.4565 33.6372L82.7415 41.9501L117.83 29.2524C117.891 29.225 117.956 29.2108 118.023 29.2108C118.089 29.2108 118.155 29.225 118.216 29.2524C118.275 29.2865 118.326 29.3333 118.364 29.3895C118.403 29.4457 118.428 29.5099 118.439 29.5772L127.523 80.175C127.544 80.2835 127.524 80.3957 127.468 80.4909C127.412 80.5861 127.324 80.6577 127.219 80.6926L94.7388 91.8576L94.617 91.949ZM75.9106 83.829L94.6272 91.005L126.549 80.0024L117.647 30.3283L82.9344 42.894C82.8264 42.9345 82.7074 42.9345 82.5994 42.894L63.9437 34.8755L75.9106 83.829Z" fill="#231F20"/>
<path d="M91.7857 89.31C91.6784 89.3079 91.575 89.2697 91.4921 89.2015C91.4092 89.1334 91.3517 89.0393 91.3289 88.9344L82.3056 42.5286C82.2938 42.4693 82.294 42.4082 82.306 42.3489C82.3181 42.2896 82.3418 42.2333 82.3758 42.1833C82.4098 42.1332 82.4534 42.0904 82.5041 42.0574C82.5547 42.0243 82.6115 42.0016 82.671 41.9907C82.7303 41.9789 82.7914 41.9791 82.8507 41.9912C82.91 42.0032 82.9663 42.0269 83.0164 42.0609C83.0664 42.0949 83.1092 42.1385 83.1423 42.1892C83.1753 42.2399 83.198 42.2966 83.2089 42.3561L92.2221 88.7517C92.2339 88.8111 92.2337 88.8722 92.2217 88.9315C92.2096 88.9908 92.1859 89.0471 92.1519 89.0971C92.1179 89.1472 92.0743 89.19 92.0236 89.223C91.973 89.2561 91.9162 89.2788 91.8567 89.2897L91.7857 89.31Z" fill="#231F20"/>
<path d="M104.747 100.475C104.747 100.475 101.174 94.8519 101.702 93.37C102.113 91.9024 102.392 90.401 102.534 88.8837L98.718 89.7972C98.718 89.7972 94.7798 79.9517 94.384 76.5311C93.9881 73.1106 86.6395 76.2672 86.3756 78.8961C86.1117 81.5249 85.9798 88.3559 88.0808 92.2941C90.1819 96.2323 96.0892 105.682 96.0892 105.682" fill="white"/>
<path d="M96.0795 106.189C96.0001 106.188 95.9224 106.167 95.8532 106.128C95.7841 106.089 95.7258 106.033 95.6836 105.966C95.6227 105.875 89.7459 96.4556 87.6651 92.5478C85.5844 88.6401 85.6351 81.9106 85.899 78.8961C86.1121 76.795 89.8372 74.6331 92.3544 74.6128C92.641 74.573 92.9326 74.5912 93.212 74.6663C93.4914 74.7413 93.7529 74.8717 93.981 75.0496C94.2091 75.2275 94.3992 75.4495 94.5399 75.7022C94.6807 75.9549 94.7693 76.2334 94.8006 76.521C95.1457 79.4645 98.2414 87.4728 98.9621 89.2897L102.393 88.4777C102.463 88.4582 102.538 88.4574 102.609 88.4752C102.68 88.4929 102.746 88.5288 102.799 88.5792C102.854 88.6284 102.898 88.6897 102.926 88.7583C102.954 88.8269 102.966 88.901 102.961 88.975C102.808 90.5298 102.519 92.0683 102.098 93.573C101.824 94.3241 103.448 97.633 105.143 100.221C105.192 100.324 105.201 100.441 105.17 100.55C105.138 100.659 105.068 100.753 104.972 100.814C104.876 100.875 104.761 100.899 104.649 100.882C104.536 100.864 104.434 100.806 104.362 100.719C103.743 99.7543 100.698 94.8316 101.266 93.2482C101.625 92.0352 101.869 90.7916 101.997 89.5333L98.82 90.2945C98.7112 90.3172 98.598 90.3012 98.4998 90.2493C98.4016 90.1974 98.3246 90.1129 98.282 90.0103C98.1196 89.6043 94.3235 80.0633 93.9175 76.6225C93.9175 76.3586 93.7957 75.5466 92.4051 75.5466C90.1721 75.5466 87.0155 77.5766 86.8633 78.9874C86.5791 81.9005 86.5384 88.4066 88.5177 92.1114C90.5477 95.9887 96.455 105.388 96.5159 105.479C96.58 105.584 96.5999 105.71 96.5714 105.83C96.5429 105.95 96.4682 106.053 96.3637 106.118C96.2803 106.175 96.1796 106.2 96.0795 106.189V106.189Z" fill="#231F20"/>
<path d="M217.301 106.088C217.225 106.088 217.151 106.07 217.085 106.035C217.018 106 216.961 105.95 216.919 105.887C216.877 105.825 216.851 105.753 216.843 105.679C216.835 105.604 216.846 105.528 216.874 105.459C218.722 100.52 219.17 95.1673 218.171 89.9899C217.172 84.8126 214.763 80.0114 211.211 76.115C210.845 75.7293 210.47 75.3436 210.084 74.9579C207.749 72.6031 205.11 69.8829 205.273 66.4928C205.326 65.7789 205.448 65.0718 205.638 64.3816C205.78 63.8137 205.885 63.2373 205.953 62.6561C206.288 58.9716 203.243 55.9063 200.634 53.988C200.005 53.5211 199.345 53.0745 198.696 52.6177C196.249 50.9328 193.722 49.1972 192.2 46.5886C190.383 43.5436 190.17 39.9607 189.896 36.53C189.672 33.485 189.449 30.2674 188.089 27.4559C186.813 24.7964 184.957 22.4569 182.657 20.6098C180.357 18.7627 177.673 17.455 174.801 16.783C171.928 16.111 168.942 16.0918 166.062 16.7269C163.181 17.3619 160.48 18.635 158.157 20.4524C155.761 22.2523 153.876 24.645 152.686 27.395C151.57 30.5298 150.997 33.8318 150.991 37.1593C150.635 44.0917 149.976 50.7806 146.18 56.4443C144.993 58.1016 143.695 59.6752 142.292 61.1539C139.694 64.0365 137.217 66.7567 136.456 70.2889C136.072 72.1854 136.22 74.151 136.883 75.9689C137.545 77.7868 138.697 79.3863 140.211 80.5911C140.26 80.6279 140.301 80.6741 140.331 80.727C140.362 80.7798 140.381 80.8382 140.389 80.8988C140.397 80.9593 140.392 81.0208 140.375 81.0795C140.359 81.1383 140.331 81.1931 140.293 81.2407C140.217 81.3367 140.106 81.3991 139.984 81.4142C139.863 81.4294 139.74 81.3963 139.643 81.3219C137.999 80.0052 136.75 78.2606 136.034 76.28C135.318 74.2994 135.162 72.1596 135.583 70.096C136.405 66.2796 139.064 63.3361 141.673 60.4941C143.044 59.0445 144.312 57.5014 145.469 55.8759C149.164 50.4355 149.783 43.8887 150.118 37.0984C150.13 33.662 150.731 30.2531 151.894 27.0194C153.134 24.1213 155.102 21.5932 157.608 19.681C160.039 17.7901 162.862 16.467 165.871 15.8086C168.879 15.1501 171.997 15.1731 174.995 15.8757C177.993 16.5783 180.796 17.9429 183.199 19.8693C185.602 21.7958 187.543 24.2353 188.881 27.0093C190.322 29.9731 190.555 33.2515 190.779 36.4183C191.022 39.8896 191.256 43.1681 192.961 46.071C194.382 48.4968 196.818 50.1817 199.173 51.8057C199.843 52.2625 200.502 52.7192 201.142 53.1861C203.943 55.2161 207.232 58.5656 206.836 62.6865C206.769 63.3136 206.654 63.9346 206.491 64.544C206.322 65.1824 206.21 65.8345 206.156 66.4928C206.014 69.5378 208.399 71.923 210.703 74.2575C211.089 74.6534 211.474 75.0391 211.84 75.4248C215.57 79.4275 218.101 84.3977 219.143 89.7689C220.186 95.14 219.699 100.696 217.737 105.804C217.701 105.889 217.64 105.962 217.562 106.012C217.484 106.063 217.393 106.089 217.301 106.088V106.088Z" fill="#231F20"/>
<path d="M145.235 77.3026L126.133 119.151L107.538 98.3334L92.0391 105.641C92.0391 105.641 126.265 157.295 135.684 152.595C145.103 147.896 158.603 106.2 158.603 106.2L145.235 77.3026Z" fill="#FFB200"/>
<path d="M169.881 65.6706C169.881 65.6706 149.175 67.9442 144.303 77.9623C139.431 87.9803 140.538 134.437 140.538 134.437L216.937 142.628C216.937 142.628 214.998 104.433 211.395 87.483C207.792 70.5325 196.779 59.3573 169.881 65.6706Z" fill="#FFB200"/>
<path d="M163.75 70.7355L171.444 112.178L182.081 66.7668L163.75 70.7355Z" fill="#231F20"/>
<path d="M171.443 112.655C171.342 112.649 171.246 112.609 171.169 112.544C171.092 112.478 171.039 112.388 171.017 112.29L163.303 70.8167C163.284 70.7028 163.31 70.586 163.374 70.49C163.438 70.394 163.536 70.3257 163.648 70.299L181.989 66.3304C182.063 66.3172 182.139 66.3213 182.211 66.3424C182.284 66.3636 182.35 66.4011 182.405 66.4522C182.454 66.5083 182.49 66.5751 182.509 66.6472C182.529 66.7194 182.531 66.795 182.517 66.8683L171.88 112.279C171.865 112.384 171.812 112.48 171.732 112.549C171.652 112.618 171.549 112.656 171.443 112.655V112.655ZM164.267 71.04L171.494 109.955L181.481 67.3251L164.267 71.04Z" fill="#231F20"/>
<path d="M163.822 58.657L163.751 70.7355C163.751 70.7355 164.969 77.4954 172.317 75.4349C174.486 74.8047 176.487 73.6999 178.176 72.2007C179.865 70.7015 181.199 68.8454 182.082 66.7668L181.249 45.8477C181.249 44.9646 177.646 41.6151 177.788 33.9316C175.2 33.9105 172.645 33.3499 170.285 32.2856C167.926 31.2212 165.814 29.6766 164.086 27.7502C164.086 27.7502 161.041 32.3583 159.68 33.8402C158.61 34.9336 157.683 36.1579 156.92 37.4841C155.671 39.8084 155.722 42.7113 155.783 45.2894C155.81 48.3558 156.116 51.4134 156.696 54.4244C157.874 60.0577 163.822 58.657 163.822 58.657Z" fill="white"/>
<path d="M169.708 76.2875C168.513 76.3129 167.335 75.9921 166.318 75.3639C164.752 74.2997 163.661 72.6696 163.273 70.8167L163.334 59.2051C161.734 59.4463 160.099 59.1386 158.695 58.3322C158.038 57.8914 157.478 57.3195 157.052 56.6523C156.626 55.985 156.342 55.2369 156.219 54.4549C155.632 51.4446 155.323 48.3867 155.295 45.3199C155.244 42.8331 155.173 39.7475 156.483 37.2811C157.269 35.8999 158.227 34.6243 159.335 33.485C160.634 32.0741 163.669 27.5168 163.699 27.4762C163.738 27.4145 163.792 27.3635 163.856 27.3281C163.92 27.2926 163.992 27.2737 164.065 27.2732C164.137 27.2645 164.211 27.2761 164.277 27.3065C164.343 27.337 164.4 27.3851 164.44 27.4457C166.134 29.3143 168.193 30.8147 170.491 31.8537C172.789 32.8926 175.276 33.4479 177.798 33.485C177.859 33.4846 177.919 33.4971 177.975 33.5215C178.031 33.546 178.081 33.582 178.122 33.6271C178.166 33.6688 178.201 33.7193 178.223 33.7753C178.246 33.8313 178.257 33.8915 178.254 33.9519C178.098 37.6754 179.091 41.3568 181.096 44.4977C181.397 44.8981 181.608 45.3585 181.716 45.8477V45.8477C181.716 45.8477 181.716 46.3146 182.548 66.7668C182.558 66.8239 182.558 66.8823 182.548 66.9394C181.649 69.0934 180.276 71.017 178.531 72.567C176.786 74.117 174.714 75.2534 172.469 75.8917C171.572 76.1518 170.642 76.2851 169.708 76.2875V76.2875ZM164.207 70.7355C164.581 72.2917 165.508 73.6589 166.815 74.5823C167.631 75.0302 168.533 75.2981 169.461 75.3682C170.389 75.4382 171.321 75.3087 172.195 74.9883C174.274 74.375 176.194 73.3151 177.821 71.8828C179.448 70.4505 180.742 68.6803 181.614 66.6958C181.553 65.153 180.792 46.0304 180.782 45.868C180.653 45.5533 180.489 45.2538 180.295 44.9748C178.285 41.8147 177.25 38.1327 177.321 34.3883C172.325 34.2233 167.59 32.1147 164.126 28.5115C162.854 30.4563 161.482 32.3332 160.015 34.1346C158.977 35.2014 158.074 36.391 157.325 37.6769C156.127 39.9302 156.188 42.7519 156.249 45.2488C156.275 48.2773 156.574 51.2974 157.142 54.2722C157.24 54.9278 157.471 55.5566 157.82 56.1203C158.169 56.6839 158.629 57.1706 159.172 57.5506C160.553 58.2975 162.154 58.5278 163.689 58.2002C163.756 58.1839 163.826 58.1837 163.893 58.1996C163.96 58.2155 164.022 58.247 164.075 58.2916C164.13 58.3351 164.176 58.3905 164.207 58.4537C164.239 58.5169 164.256 58.5863 164.258 58.657L164.176 70.7355H164.207Z" fill="#231F20"/>
<path d="M163.894 64.5846C163.894 64.5846 168.796 64.8079 171.953 61.5396C172.855 60.7076 173.566 59.6894 174.036 58.5554C174.505 57.4215 174.723 56.1989 174.673 54.9725C174.673 54.9725 169.375 58.5352 163.863 58.657L163.894 64.5846Z" fill="#231F20"/>
<path d="M164.106 65.0413H163.872C163.758 65.0387 163.65 64.9915 163.57 64.91C163.491 64.8284 163.446 64.7189 163.446 64.6049L163.375 58.6671C163.375 58.5504 163.421 58.4384 163.502 58.3549C163.584 58.2714 163.695 58.2232 163.811 58.2205C169.12 58.0987 174.337 54.6477 174.388 54.6173C174.453 54.5799 174.526 54.5602 174.601 54.5602C174.676 54.5602 174.749 54.5799 174.814 54.6173C174.884 54.6476 174.945 54.6952 174.991 54.7556C175.037 54.816 175.067 54.8872 175.078 54.9624C175.078 55.1045 175.535 58.5149 172.266 61.8948C170.051 63.9517 167.129 65.0782 164.106 65.0413V65.0413ZM164.268 59.0833L164.329 64.1583C167.041 64.116 169.64 63.071 171.627 61.2249C173.102 59.7866 174.013 57.8673 174.195 55.815C171.174 57.6374 167.781 58.7546 164.268 59.0833Z" fill="#231F20"/>
<path d="M165.18 40.9148C165.18 40.9148 161.292 46.68 162.216 47.695C163.14 48.71 165.728 48.0401 165.728 48.0401" fill="white"/>
<path d="M164.014 48.71C163.63 48.7417 163.243 48.696 162.877 48.5757C162.511 48.4554 162.173 48.2629 161.882 48.0097C160.867 46.9033 163.283 42.9347 164.805 40.6408C164.837 40.5893 164.878 40.5448 164.927 40.5099C164.977 40.4749 165.032 40.4503 165.091 40.4374C165.15 40.4245 165.211 40.4237 165.27 40.4349C165.329 40.4462 165.385 40.4693 165.435 40.5029C165.485 40.5364 165.528 40.5798 165.561 40.6303C165.594 40.6808 165.616 40.7374 165.626 40.7968C165.637 40.8561 165.635 40.917 165.621 40.9756C165.608 41.0343 165.582 41.0896 165.546 41.1381C163.628 44.0106 162.227 46.9338 162.552 47.4007C163.151 48.0604 165.008 47.7661 165.597 47.6138C165.708 47.5929 165.824 47.615 165.919 47.6757C166.015 47.7364 166.084 47.8312 166.112 47.9408C166.14 48.0504 166.126 48.1668 166.072 48.2662C166.018 48.3657 165.928 48.4409 165.82 48.4766C165.229 48.6229 164.623 48.7012 164.014 48.71V48.71Z" fill="#231F20"/>
<path d="M161.039 50.9836C161.039 50.9836 164.52 56.1398 170.651 51.1764Z" fill="white"/>
<path d="M165.537 53.785C165.249 53.7852 164.96 53.7648 164.675 53.7241C163.047 53.4553 161.589 52.5588 160.615 51.2272C160.549 51.1289 160.525 51.0085 160.547 50.8924C160.57 50.7763 160.638 50.6741 160.736 50.608C160.785 50.5741 160.839 50.5502 160.897 50.5379C160.955 50.5257 161.014 50.5252 161.072 50.5366C161.13 50.548 161.185 50.571 161.234 50.6042C161.282 50.6374 161.324 50.6801 161.356 50.7298C162.197 51.8388 163.426 52.5893 164.796 52.8309C166.502 53.0846 168.369 52.4046 170.318 50.8009C170.364 50.7641 170.417 50.7367 170.473 50.7204C170.53 50.704 170.589 50.699 170.647 50.7056C170.706 50.7122 170.763 50.7303 170.814 50.7588C170.865 50.7874 170.911 50.8258 170.947 50.8719C170.986 50.9166 171.015 50.9687 171.033 51.0251C171.051 51.0814 171.057 51.1408 171.052 51.1996C171.046 51.2585 171.028 51.3156 171 51.3674C170.972 51.4193 170.933 51.4648 170.886 51.5012C169.417 52.8523 167.529 53.6584 165.537 53.785Z" fill="#231F20"/>
<path d="M149.61 133.889C149.491 133.881 149.379 133.827 149.3 133.737C149.22 133.648 149.179 133.531 149.184 133.412L152.067 85.4631C152.068 85.4044 152.081 85.3466 152.106 85.2932C152.13 85.2399 152.165 85.1922 152.209 85.1531C152.253 85.114 152.305 85.0844 152.36 85.0662C152.416 85.0479 152.475 85.0414 152.534 85.047C152.594 85.0481 152.653 85.0616 152.707 85.0867C152.762 85.1117 152.811 85.1478 152.851 85.1925C152.891 85.2373 152.921 85.2899 152.94 85.3469C152.959 85.4039 152.965 85.4642 152.96 85.524L150.077 133.462C150.075 133.521 150.061 133.579 150.036 133.632C150.011 133.685 149.976 133.733 149.932 133.772C149.889 133.812 149.838 133.843 149.783 133.863C149.728 133.883 149.669 133.892 149.61 133.889Z" fill="#231F20"/>
<path d="M204.533 139.532C204.888 140.547 216.368 173.738 203.203 185.593C189.166 198.22 118.166 191.571 118.166 191.571L110.412 167.648C109.549 159.152 109.113 153.164 125.718 151.611L148.962 146.85L149.611 133.442L204.533 139.532Z" fill="#231F20"/>
<path d="M156.999 193.764H155.385C136.1 193.682 118.266 192.028 118.094 192.018C118.005 192.01 117.922 191.975 117.853 191.919C117.784 191.863 117.734 191.788 117.708 191.703L109.963 167.79C109.497 163.334 109.07 159.213 111.547 156.198C113.8 153.448 118.286 151.854 125.645 151.123L148.503 146.444L149.132 133.371C149.136 133.31 149.152 133.251 149.18 133.197C149.208 133.142 149.247 133.095 149.295 133.056C149.339 133.016 149.393 132.985 149.451 132.968C149.509 132.95 149.57 132.946 149.63 132.955L204.551 139.045C204.637 139.054 204.717 139.088 204.784 139.142C204.85 139.196 204.9 139.268 204.927 139.349L204.501 139.492L204.947 139.421C206.145 142.963 216.275 174.357 203.475 185.877C197.72 191.125 182.069 193.764 156.999 193.764ZM118.5 191.145C123.483 191.592 189.621 197.235 202.907 185.258C215.087 174.296 205.627 144.242 204.196 139.938L150.036 133.97L149.416 146.901C149.41 147.001 149.37 147.096 149.304 147.171C149.238 147.246 149.149 147.297 149.051 147.317L125.808 152.078C118.652 152.747 114.358 154.25 112.267 156.797C110.024 159.518 110.43 163.466 110.857 167.638L118.5 191.145Z" fill="#231F20"/>
<path d="M129.951 169.952C129.951 169.952 126.266 152.199 112.868 156.219C99.4702 160.238 129.281 226.254 129.281 230.588C129.281 234.922 117.892 248.005 117.892 248.005C121.145 247.831 124.387 247.492 127.606 246.99C131.128 246.32 140.801 232.252 141.177 230.75C141.552 229.248 134.478 182.69 129.951 169.952Z" fill="white"/>
<path d="M117.894 248.472C117.807 248.471 117.722 248.446 117.648 248.4C117.574 248.353 117.515 248.287 117.478 248.208C117.439 248.126 117.425 248.034 117.437 247.944C117.45 247.854 117.489 247.769 117.549 247.701C120.685 244.097 128.825 234.019 128.825 230.588C128.825 229.573 126.887 224.447 124.43 217.931C117.325 199.052 105.409 167.445 109.956 158.249C110.219 157.663 110.603 157.14 111.082 156.713C111.562 156.287 112.126 155.966 112.738 155.772C114.282 155.237 115.924 155.041 117.551 155.197C119.178 155.353 120.752 155.857 122.167 156.676C128.257 160.299 130.287 169.13 130.399 169.871C134.743 182.122 142.071 228.923 141.635 230.892C141.32 232.303 131.485 246.767 127.699 247.498C124.46 248.002 121.197 248.341 117.924 248.513L117.894 248.472ZM116.655 156.107C115.416 156.115 114.185 156.306 113.001 156.676C112.509 156.835 112.056 157.1 111.674 157.45C111.292 157.8 110.99 158.228 110.789 158.706C106.414 167.536 118.696 200.138 125.303 217.647C128.226 225.411 129.749 229.512 129.749 230.628C129.749 234.496 121.497 244.524 118.959 247.518C120.898 247.386 124.958 247.071 127.526 246.584C130.764 245.965 140.406 232.131 140.721 230.689C141.036 229.248 134.113 183.076 129.556 170.155C129.556 170.155 129.556 170.155 129.556 170.094C129.556 170.033 127.597 160.959 121.741 157.508C120.209 156.575 118.448 156.087 116.655 156.097V156.107Z" fill="#231F20"/>
<path d="M117.222 246.889C116.287 246.987 115.394 247.326 114.63 247.875C113.867 248.423 113.259 249.16 112.867 250.015C111.639 252.918 116.927 254.593 121.799 254.816C126.062 254.98 130.322 254.452 134.416 253.253C136.052 252.451 137.498 251.309 138.659 249.903C138.659 249.903 138.659 253.476 139.887 253.364C141.645 253.276 143.397 253.09 145.134 252.806C145.581 252.583 143.683 238.738 141.176 230.75C141.176 230.75 131.026 245.102 127.828 245.772C124.631 246.442 117.222 246.889 117.222 246.889Z" fill="#231F20"/>
<path d="M123.222 255.293C122.745 255.293 122.257 255.293 121.78 255.293C118.38 255.141 113.934 254.217 112.645 252.136C112.431 251.802 112.305 251.42 112.279 251.024C112.252 250.628 112.326 250.232 112.493 249.873C112.911 248.939 113.569 248.133 114.4 247.535C115.231 246.938 116.205 246.571 117.223 246.473V246.473C117.294 246.473 124.592 246.016 127.759 245.366C130.276 244.838 138.051 234.475 140.832 230.527C140.879 230.457 140.945 230.402 141.023 230.369C141.1 230.337 141.186 230.328 141.268 230.344C141.35 230.356 141.427 230.391 141.49 230.445C141.553 230.499 141.599 230.57 141.624 230.649C142.942 235.232 143.972 239.893 144.709 244.605C146.049 252.837 145.602 253.06 145.339 253.192C143.932 253.511 142.497 253.685 141.055 253.71L139.929 253.801C139.782 253.814 139.635 253.796 139.496 253.747C139.358 253.698 139.232 253.619 139.127 253.517C138.582 252.786 138.284 251.901 138.274 250.989C137.238 252.122 135.98 253.03 134.58 253.659C130.893 254.752 127.067 255.303 123.222 255.293V255.293ZM117.253 247.335C116.4 247.422 115.585 247.731 114.888 248.232C114.192 248.732 113.639 249.407 113.285 250.187C113.173 250.415 113.123 250.667 113.139 250.92C113.155 251.173 113.237 251.417 113.376 251.629C114.28 253.06 117.751 254.187 121.821 254.369C126.025 254.532 130.228 254.011 134.265 252.827C135.829 252.055 137.212 250.962 138.325 249.619C138.383 249.548 138.462 249.497 138.551 249.472C138.64 249.448 138.734 249.451 138.821 249.482C138.908 249.513 138.983 249.571 139.035 249.646C139.088 249.721 139.117 249.811 139.117 249.903C139.117 250.918 139.309 252.481 139.736 252.867C139.751 252.884 139.77 252.897 139.791 252.905C139.812 252.914 139.835 252.918 139.858 252.918L140.994 252.827C142.009 252.745 144.09 252.583 144.77 252.451C144.851 250.644 143.217 239.205 141.025 231.755C138.751 234.922 130.875 245.59 127.931 246.209C124.393 246.763 120.829 247.139 117.253 247.335V247.335Z" fill="#231F20"/>
<path d="M160.778 230.811C160.778 230.811 154.962 173.413 152.282 162.695C149.603 151.976 134.195 148.627 129.506 161.578C124.816 174.529 148.04 225.452 146.253 230.811C144.467 236.17 137.768 246.635 137.768 246.635C137.768 246.635 144.873 250.208 150.049 246.635C155.226 243.062 160.778 230.811 160.778 230.811Z" fill="white"/>
<path d="M144.567 248.726C142.144 248.669 139.759 248.109 137.563 247.082C137.505 247.051 137.454 247.009 137.412 246.959C137.37 246.908 137.339 246.85 137.32 246.787C137.29 246.659 137.312 246.524 137.381 246.412C137.442 246.31 144.07 235.906 145.815 230.659C146.455 228.741 143.197 219.22 139.725 209.151C133.635 191.49 126.124 169.566 129.058 161.446C131.088 155.732 135.564 152.473 140.913 152.758C143.672 152.932 146.305 153.98 148.429 155.75C150.553 157.52 152.059 159.92 152.728 162.603C155.387 173.23 161.162 230.212 161.223 230.781C161.243 230.861 161.243 230.944 161.223 231.024C160.99 231.532 155.529 243.458 150.342 247.061C148.638 248.205 146.619 248.787 144.567 248.726V248.726ZM138.477 246.462C140.121 247.153 145.704 249.142 149.815 246.28C154.534 243.001 159.751 231.968 160.33 230.73C160.025 227.685 154.443 173.129 151.865 162.806C151.243 160.317 149.846 158.091 147.875 156.449C145.905 154.807 143.463 153.834 140.903 153.671C136.011 153.407 131.9 156.442 129.971 161.791C127.15 169.576 134.945 192.302 140.639 208.897C145.003 221.595 147.429 228.893 146.729 231.004C145.105 235.734 139.766 244.361 138.447 246.462H138.477Z" fill="#231F20"/>
<path d="M137.767 246.635C135.731 247.584 133.879 248.887 132.296 250.482C130.459 252.664 128.784 253.669 131.281 255.344C133.778 257.018 149.551 255.841 151.713 255.171C153.875 254.501 157.58 249.315 157.58 249.315C157.58 249.315 157.407 255.171 158.077 255.344C159.564 255.283 161.042 255.086 162.493 254.755C162.996 246.752 162.433 238.717 160.818 230.862C160.818 230.862 155.388 243.143 148.546 245.62C141.705 248.097 137.767 246.635 137.767 246.635Z" fill="#231F20"/>
<path d="M138.447 256.673C135.046 256.673 132.083 256.43 131.047 255.75C130.685 255.568 130.366 255.31 130.114 254.992C129.862 254.675 129.681 254.307 129.586 253.913C129.474 252.979 130.195 252.177 131.118 251.172L131.961 250.228C133.577 248.573 135.483 247.228 137.584 246.259C137.694 246.214 137.818 246.214 137.929 246.259C137.929 246.259 141.796 247.66 148.394 245.244C154.991 242.829 160.31 230.76 160.36 230.639C160.4 230.553 160.465 230.481 160.547 230.434C160.629 230.387 160.723 230.366 160.817 230.375C160.912 230.385 161.001 230.425 161.072 230.489C161.143 230.552 161.192 230.637 161.213 230.73C162.825 238.63 163.388 246.708 162.888 254.755C162.883 254.85 162.846 254.941 162.783 255.012C162.721 255.084 162.636 255.133 162.543 255.151C161.054 255.545 159.525 255.77 157.985 255.821C157.681 255.74 157.072 255.587 157.112 250.746C155.874 252.349 153.519 255.141 151.855 255.658C147.422 256.377 142.937 256.717 138.447 256.673V256.673ZM137.797 247.142C135.876 248.051 134.13 249.291 132.641 250.807C132.346 251.152 132.052 251.477 131.788 251.771C131.017 252.613 130.408 253.273 130.479 253.801C130.479 254.156 130.865 254.552 131.494 254.999C133.747 256.501 149.104 255.526 151.54 254.775C153.215 254.268 156.168 250.492 157.173 249.081C157.229 249.002 157.308 248.943 157.4 248.913C157.492 248.883 157.59 248.883 157.682 248.914C157.773 248.945 157.852 249.005 157.907 249.084C157.962 249.164 157.989 249.259 157.985 249.355C157.867 251.224 157.959 253.1 158.259 254.948C159.511 254.838 160.753 254.634 161.974 254.339C162.394 246.943 161.914 239.523 160.543 232.242C158.97 235.49 154.372 243.986 148.647 246.077C142.517 248.34 138.68 247.417 137.797 247.142V247.142Z" fill="#231F20"/>
<path d="M207.535 163.953C208.236 164.968 210.468 186.923 210.468 186.923C210.468 186.923 235.356 189.176 235.712 187.43C236.067 185.684 223.024 181.249 223.024 181.249L218.964 163.841" fill="white"/>
<path d="M230.688 188.557C228.821 188.557 226.314 188.486 222.934 188.293C216.732 187.958 210.49 187.4 210.429 187.389C210.321 187.381 210.219 187.334 210.141 187.258C210.063 187.182 210.014 187.081 210.003 186.973C209.16 178.681 207.638 165.151 207.14 164.197C207.106 164.146 207.083 164.089 207.071 164.03C207.059 163.97 207.06 163.909 207.072 163.849C207.084 163.79 207.108 163.733 207.143 163.683C207.177 163.633 207.221 163.59 207.272 163.557C207.378 163.492 207.505 163.47 207.626 163.496C207.747 163.523 207.853 163.596 207.922 163.699C208.612 164.714 210.317 180.954 210.886 186.496C221.959 187.511 233.815 188.029 235.246 187.268C234.809 186.253 228.577 183.614 222.883 181.685C222.81 181.662 222.744 181.619 222.692 181.562C222.64 181.505 222.605 181.436 222.589 181.36L218.529 163.943C218.501 163.823 218.522 163.697 218.587 163.593C218.651 163.488 218.754 163.414 218.874 163.385C218.995 163.36 219.12 163.384 219.225 163.45C219.329 163.516 219.403 163.62 219.432 163.74L223.492 180.893C228.567 182.609 236.606 185.674 236.24 187.511C236.078 187.958 235.956 188.557 230.688 188.557Z" fill="#231F20"/>
<path d="M210.693 86.265L227.674 169.038L204.258 169.647C204.258 169.647 196.138 125.82 195.641 119.242C195.143 112.665 210.693 86.265 210.693 86.265Z" fill="#FFB200"/>
<path d="M158.788 45.1068C161.709 45.1068 164.076 42.7392 164.076 39.8186C164.076 36.898 161.709 34.5305 158.788 34.5305C155.868 34.5305 153.5 36.898 153.5 39.8186C153.5 42.7392 155.868 45.1068 158.788 45.1068Z" fill="white"/>
<path d="M158.796 45.5736H158.563C157.427 45.5307 156.33 45.1519 155.41 44.4853C154.49 43.8186 153.788 42.8941 153.393 41.8285C152.998 40.763 152.928 39.6043 153.192 38.499C153.456 37.3938 154.042 36.3916 154.875 35.6192C155.709 34.8468 156.752 34.3389 157.874 34.1598C158.997 33.9807 160.147 34.1383 161.179 34.6128C162.212 35.0873 163.08 35.8573 163.675 36.8255C164.27 37.7937 164.564 38.9166 164.521 40.052H164.054H164.521C164.461 41.5341 163.831 42.9356 162.762 43.9644C161.694 44.9931 160.269 45.5696 158.786 45.5736H158.796ZM158.796 34.9973C157.418 35.0228 156.106 35.5912 155.146 36.579C154.185 37.5668 153.653 38.894 153.666 40.2719C153.678 41.6499 154.235 42.967 155.213 43.9369C156.192 44.9068 157.515 45.451 158.893 45.451C160.271 45.451 161.593 44.9068 162.572 43.9369C163.551 42.967 164.107 41.6499 164.12 40.2719C164.132 38.894 163.6 37.5668 162.64 36.579C161.679 35.5912 160.367 35.0228 158.989 34.9973H158.796Z" fill="#231F20"/>
<path d="M170.441 45.5736C173.361 45.5736 175.729 43.206 175.729 40.2855C175.729 37.3649 173.361 34.9973 170.441 34.9973C167.52 34.9973 165.152 37.3649 165.152 40.2855C165.152 43.206 167.52 45.5736 170.441 45.5736Z" fill="white"/>
<path d="M170.438 46.0304H170.205C169.072 45.9762 167.98 45.5891 167.066 44.9174C166.152 44.2457 165.457 43.3194 165.066 42.2543C164.676 41.1893 164.609 40.0328 164.873 38.9297C165.137 37.8266 165.721 36.8259 166.551 36.0529C167.387 35.2815 168.433 34.7753 169.557 34.5982C170.681 34.4211 171.832 34.5811 172.865 35.0579C173.898 35.5348 174.766 36.3071 175.36 37.2772C175.955 38.2474 176.248 39.3719 176.203 40.5088C176.146 41.9934 175.515 43.3979 174.444 44.4274C173.373 45.457 171.944 46.0315 170.459 46.0304H170.438ZM170.438 35.4541C169.805 35.4421 169.176 35.5549 168.586 35.7861C167.997 36.0173 167.459 36.3624 167.002 36.8016C166.081 37.6886 165.55 38.9053 165.526 40.184C165.501 41.4626 165.986 42.6986 166.873 43.6199C167.76 44.5411 168.977 45.0723 170.256 45.0966C170.889 45.1279 171.522 45.0308 172.117 44.811C172.712 44.5912 173.256 44.2533 173.717 43.8177C174.183 43.3893 174.559 42.8726 174.824 42.2977C175.089 41.7227 175.237 41.1008 175.259 40.4682V40.4682C175.298 39.1954 174.83 37.9594 173.959 37.031C173.087 36.1025 171.883 35.5574 170.611 35.515L170.438 35.4541Z" fill="#231F20"/>
<path d="M133.157 127.322C133.094 127.322 133.031 127.309 132.973 127.283C132.915 127.256 132.864 127.218 132.823 127.169L110.229 101.125C110.189 101.08 110.159 101.027 110.14 100.971C110.121 100.914 110.114 100.854 110.119 100.794C110.123 100.734 110.14 100.676 110.168 100.623C110.195 100.57 110.233 100.523 110.279 100.485C110.32 100.443 110.369 100.409 110.423 100.386C110.477 100.363 110.535 100.351 110.594 100.351C110.653 100.351 110.711 100.363 110.765 100.386C110.819 100.409 110.868 100.443 110.909 100.485L133.503 126.53C133.542 126.574 133.572 126.626 133.591 126.682C133.609 126.738 133.617 126.797 133.612 126.856C133.607 126.914 133.59 126.972 133.563 127.024C133.535 127.076 133.498 127.122 133.452 127.159C133.417 127.205 133.372 127.244 133.322 127.272C133.271 127.3 133.215 127.317 133.157 127.322V127.322Z" fill="#231F20"/>
<path d="M91.3086 50.4964L112.735 42.2749L114.664 52.1001L93.0747 59.0326L91.3086 50.4964Z" fill="#E6E7E8"/>
<path d="M159.251 39.2553C159.278 38.5663 159 37.9961 158.631 37.9815C158.261 37.967 157.939 38.5137 157.912 39.2027C157.885 39.8917 158.163 40.462 158.533 40.4765C158.902 40.491 159.224 39.9443 159.251 39.2553Z" fill="#231F20"/>
<path d="M171.189 39.9725C171.216 39.2835 170.938 38.7132 170.568 38.6987C170.199 38.6842 169.877 39.2309 169.85 39.9199C169.823 40.6088 170.1 41.1791 170.47 41.1937C170.84 41.2082 171.161 40.6614 171.189 39.9725Z" fill="#231F20"/>
<path d="M186.272 44.5586C186.157 44.5566 186.046 44.5118 185.962 44.4331C185.878 44.3544 185.825 44.2473 185.815 44.1323C185.582 41.3512 178.487 41.27 175.767 41.473C175.706 41.4786 175.645 41.4719 175.587 41.4533C175.528 41.4347 175.475 41.4047 175.428 41.365C175.382 41.3252 175.344 41.2766 175.317 41.2219C175.289 41.1673 175.273 41.1077 175.27 41.0467C175.271 40.933 175.315 40.8238 175.391 40.7397C175.468 40.6556 175.573 40.6023 175.686 40.59C176.782 40.5088 186.374 39.8998 186.729 44.0917C186.734 44.1531 186.728 44.2149 186.709 44.2737C186.691 44.3325 186.661 44.3871 186.621 44.4342C186.582 44.4814 186.533 44.5203 186.478 44.5486C186.424 44.5769 186.364 44.5941 186.303 44.5992L186.272 44.5586Z" fill="#231F20"/>
<path d="M176.934 44.8124C177.123 43.9157 177.596 43.104 178.284 42.4982C178.95 41.9694 179.702 41.5575 180.506 41.2802C180.931 41.089 181.391 40.9888 181.856 40.9858C182.184 41.0268 182.501 41.1302 182.79 41.2903C183.499 41.6093 184.072 42.1708 184.404 42.8737C184.602 43.4649 184.654 44.0952 184.556 44.7109C184.501 45.3865 184.358 46.0519 184.13 46.6901C183.891 47.3264 183.527 47.9083 183.06 48.4013C182.592 48.8943 182.03 49.2883 181.407 49.56C180.784 49.8316 180.113 49.9755 179.434 49.9829C178.754 49.9903 178.08 49.8612 177.451 49.6032" fill="white"/>
<path d="M179.351 50.3745C178.655 50.3721 177.966 50.2378 177.321 49.9787C177.268 49.9611 177.22 49.9329 177.179 49.8958C177.137 49.8588 177.104 49.8137 177.081 49.7634C177.058 49.713 177.045 49.6585 177.044 49.6031C177.043 49.5477 177.053 49.4926 177.074 49.4413C177.095 49.3899 177.126 49.3434 177.165 49.3045C177.205 49.2656 177.252 49.2352 177.303 49.2152C177.355 49.1952 177.41 49.186 177.466 49.1881C177.521 49.1902 177.575 49.2037 177.625 49.2276C178.206 49.465 178.829 49.5839 179.457 49.5773C180.084 49.5707 180.704 49.4387 181.28 49.189C181.856 48.9394 182.376 48.5772 182.81 48.1236C183.244 47.6701 183.583 47.1344 183.807 46.548C184.024 45.9431 184.157 45.3113 184.202 44.6702C184.296 44.117 184.254 43.5494 184.081 43.0158C183.782 42.4093 183.279 41.9277 182.66 41.6557C182.419 41.5179 182.153 41.4283 181.878 41.3918C181.474 41.394 181.076 41.4841 180.711 41.6557C179.949 41.9201 179.236 42.3076 178.6 42.8026C177.979 43.35 177.551 44.0834 177.382 44.8936C177.357 44.997 177.294 45.0872 177.206 45.1457C177.117 45.2042 177.009 45.2266 176.905 45.2082C176.8 45.1862 176.708 45.1237 176.649 45.0344C176.59 44.9451 176.569 44.8361 176.59 44.7312C176.796 43.7471 177.316 42.8565 178.072 42.1937C178.771 41.6339 179.56 41.1979 180.406 40.9046C180.889 40.6822 181.417 40.5745 181.949 40.5899C182.327 40.6307 182.694 40.7481 183.025 40.935C183.821 41.2926 184.459 41.9276 184.822 42.7214C185.048 43.373 185.107 44.071 184.994 44.7514C184.942 45.4655 184.791 46.1691 184.548 46.8423C184.003 48.2034 182.946 49.2966 181.604 49.8874C180.895 50.2059 180.128 50.3719 179.351 50.3745V50.3745Z" fill="#231F20"/>
<path d="M203.923 168.115C203.814 168.114 203.708 168.075 203.625 168.004C203.541 167.934 203.485 167.836 203.466 167.729L189.682 83.5752C189.672 83.5159 189.674 83.4551 189.687 83.3964C189.701 83.3378 189.725 83.2823 189.76 83.2332C189.795 83.1842 189.84 83.1425 189.891 83.1106C189.942 83.0787 189.999 83.0573 190.058 83.0474C190.118 83.0358 190.18 83.0363 190.24 83.049C190.3 83.0617 190.356 83.0863 190.406 83.1213C190.457 83.1563 190.499 83.2011 190.532 83.2529C190.564 83.3047 190.586 83.3626 190.596 83.423L204.38 167.577C204.39 167.637 204.388 167.698 204.374 167.757C204.36 167.817 204.334 167.873 204.298 167.922C204.262 167.971 204.217 168.012 204.164 168.044C204.112 168.075 204.054 168.096 203.994 168.104L203.923 168.115Z" fill="#231F20"/>
<path d="M162.297 147.926C162.23 147.94 162.161 147.94 162.094 147.926C156.786 145.551 149.163 147.368 149.082 147.378C149.018 147.395 148.951 147.399 148.886 147.389C148.82 147.38 148.757 147.357 148.7 147.323C148.644 147.289 148.594 147.244 148.555 147.191C148.516 147.138 148.488 147.077 148.473 147.013C148.456 146.947 148.453 146.879 148.463 146.813C148.473 146.746 148.496 146.682 148.531 146.624C148.566 146.567 148.612 146.517 148.666 146.477C148.721 146.437 148.783 146.409 148.848 146.394C149.173 146.312 156.887 144.475 162.51 147.003C162.632 147.058 162.728 147.16 162.775 147.285C162.823 147.411 162.819 147.55 162.764 147.672C162.716 147.753 162.648 147.819 162.565 147.864C162.483 147.909 162.39 147.93 162.297 147.926Z" fill="white"/>
<path d="M191.643 131.504C191.56 131.505 191.478 131.48 191.41 131.432L179.981 124.764C179.876 124.702 179.799 124.602 179.767 124.484C179.734 124.367 179.749 124.241 179.809 124.135C179.872 124.029 179.974 123.951 180.093 123.919C180.213 123.887 180.34 123.902 180.448 123.962L191.928 130.631C192.034 130.694 192.111 130.796 192.143 130.916C192.175 131.035 192.16 131.162 192.1 131.27C192.053 131.348 191.986 131.411 191.905 131.452C191.824 131.493 191.734 131.511 191.643 131.504V131.504Z" fill="#231F20"/>
<path d="M154.493 127.494C154.423 127.496 154.353 127.482 154.289 127.452C154.226 127.422 154.17 127.377 154.127 127.322C154.089 127.275 154.06 127.22 154.042 127.162C154.025 127.104 154.02 127.043 154.026 126.982C154.033 126.921 154.051 126.863 154.081 126.81C154.111 126.756 154.151 126.71 154.198 126.672L161.06 121.151C161.106 121.102 161.161 121.063 161.223 121.037C161.285 121.012 161.352 121 161.419 121.002C161.486 121.005 161.551 121.022 161.611 121.052C161.671 121.082 161.723 121.124 161.765 121.177C161.807 121.229 161.838 121.29 161.854 121.354C161.87 121.419 161.873 121.487 161.861 121.553C161.849 121.619 161.822 121.681 161.784 121.736C161.746 121.791 161.696 121.837 161.638 121.871L154.777 127.393C154.698 127.46 154.597 127.496 154.493 127.494V127.494Z" fill="#231F20"/>
<path d="M70.8388 221.016C73.008 219.074 75.4624 217.475 78.1163 216.276C78.3396 224.061 75.183 231.217 72.2598 236.12H62.7695" fill="white"/>
<path d="M72.2563 236.647H62.7661C62.6968 236.647 62.6281 236.634 62.5641 236.607C62.5001 236.581 62.4419 236.542 62.3929 236.493C62.3439 236.444 62.305 236.386 62.2785 236.322C62.2519 236.258 62.2383 236.189 62.2383 236.12C62.2383 236.05 62.2519 235.982 62.2785 235.918C62.305 235.854 62.3439 235.795 62.3929 235.746C62.4419 235.697 62.5001 235.658 62.5641 235.632C62.6281 235.605 62.6968 235.592 62.7661 235.592H71.962C74.5908 231.116 77.5952 224.427 77.6054 217.088C75.2826 218.24 73.1223 219.694 71.1804 221.412C71.0834 221.509 70.952 221.563 70.815 221.563C70.678 221.563 70.5467 221.509 70.4496 221.412C70.3523 221.313 70.2978 221.18 70.2978 221.042C70.2978 220.903 70.3523 220.77 70.4496 220.671C72.6585 218.68 75.1654 217.046 77.8794 215.83C77.9576 215.799 78.0419 215.787 78.1255 215.796C78.209 215.804 78.2894 215.832 78.3598 215.878C78.4303 215.924 78.4889 215.985 78.5306 216.058C78.5724 216.131 78.5962 216.213 78.6001 216.297C78.8234 224.325 75.4942 231.674 72.6623 236.424C72.6167 236.49 72.5562 236.545 72.4857 236.584C72.4152 236.622 72.3367 236.644 72.2563 236.647V236.647Z" fill="#231F20"/>
<path d="M57.2344 223.117C59.5689 210.937 69.0997 203.284 69.0997 203.284C70.8786 209.015 71.4692 215.049 70.8354 221.016C70.341 226.162 69.2406 231.232 67.5569 236.12H57.3359" fill="white"/>
<path d="M67.5573 236.647H57.3363C57.2675 236.647 57.1993 236.634 57.1358 236.607C57.0724 236.58 57.0148 236.541 56.9666 236.492C56.9184 236.443 56.8805 236.385 56.8551 236.321C56.8297 236.257 56.8173 236.188 56.8186 236.12C56.8186 235.981 56.8728 235.849 56.9696 235.75C57.0664 235.651 57.1981 235.594 57.3363 235.592H67.1818C68.7833 230.856 69.8357 225.952 70.3181 220.976C70.9127 215.344 70.413 209.65 68.8464 204.208C66.7555 206.096 59.7114 213.12 57.7423 223.209C57.7336 223.279 57.7106 223.347 57.6746 223.408C57.6387 223.469 57.5907 223.522 57.5335 223.563C57.4763 223.605 57.4111 223.635 57.3421 223.65C57.273 223.666 57.2015 223.667 57.132 223.654C57.0624 223.64 56.9963 223.613 56.9378 223.573C56.8792 223.534 56.8294 223.482 56.7915 223.422C56.7536 223.363 56.7283 223.296 56.7173 223.226C56.7062 223.156 56.7096 223.084 56.7273 223.016C59.0719 210.836 68.6941 202.96 68.7855 202.878C68.851 202.824 68.929 202.788 69.0124 202.772C69.0957 202.756 69.1817 202.761 69.2625 202.787C69.3429 202.811 69.4163 202.854 69.4764 202.912C69.5365 202.97 69.5815 203.042 69.6077 203.122C71.416 208.92 72.0171 215.028 71.3737 221.067C70.8727 226.255 69.7586 231.366 68.0547 236.292C68.0217 236.397 67.9552 236.489 67.8655 236.553C67.7758 236.617 67.6676 236.65 67.5573 236.647V236.647Z" fill="#231F20"/>
<path d="M52.1904 236.12H61.234C61.3152 233.44 60.7062 229.39 57.8033 224.132C57.6105 223.777 57.4176 223.442 57.2248 223.117C51.9874 214.246 47.1966 214.348 47.1966 214.348C45.1767 223.676 49.4499 231.999 52.1904 236.12Z" fill="white"/>
<path d="M61.236 236.647H52.1924C52.1059 236.648 52.0207 236.627 51.9444 236.586C51.8682 236.545 51.8034 236.486 51.7559 236.414C48.9748 232.222 44.6509 223.767 46.6809 214.236C46.7022 214.12 46.7636 214.014 46.8544 213.938C46.9453 213.862 47.0598 213.82 47.1783 213.82C47.4117 213.82 52.3345 213.82 57.6734 222.854C57.8662 223.188 58.0591 223.523 58.2519 223.869C61.2969 229.37 61.8247 233.572 61.7435 236.13C61.741 236.264 61.687 236.393 61.5927 236.489C61.4983 236.586 61.3707 236.642 61.236 236.647V236.647ZM52.4766 235.632H60.7184C60.7184 233.166 60.0789 229.35 57.3486 224.467L56.7802 223.452C52.6288 216.429 48.8327 215.2 47.6452 214.987C45.8994 223.706 49.8274 231.542 52.4766 235.602V235.632Z" fill="#231F20"/>
<path d="M53.8365 250.462H71.5686L74.4309 236.13H50.9844L53.8365 250.462Z" fill="#231F20"/>
</svg>
