<svg width="557" height="420" viewBox="0 0 557 420" fill="none" xmlns="http://www.w3.org/2000/svg">
<g filter="url(#filter0_d_722_381)">
<path d="M129.309 62.4389V313.635L95.8329 348.492V62.4389H129.309Z" fill="white"/>
<path d="M95.8328 349.188C96.021 349.188 96.2013 349.113 96.3341 348.979L129.754 314.151C129.878 314.018 129.947 313.845 129.949 313.663V62.4389C129.951 62.3481 129.935 62.2578 129.901 62.1734C129.868 62.089 129.818 62.012 129.754 61.9472C129.691 61.8823 129.615 61.8308 129.531 61.7956C129.447 61.7604 129.358 61.7423 129.267 61.7423H95.8467C95.6621 61.7423 95.485 61.8157 95.3544 61.9464C95.2238 62.077 95.1505 62.2542 95.1505 62.4389V348.506C95.1512 348.643 95.1926 348.777 95.2694 348.891C95.3462 349.006 95.455 349.094 95.5822 349.147C95.663 349.174 95.7476 349.188 95.8328 349.188ZM128.612 313.357L96.5151 346.792V63.1355H128.612V313.357Z" fill="#231F20"/>
<path d="M129.297 62.4389H427.695V313.635H129.297V62.4389Z" fill="white"/>
<path d="M129.309 314.332H427.694C427.879 314.332 428.056 314.259 428.187 314.128C428.317 313.997 428.391 313.82 428.391 313.635V62.4389C428.391 62.2542 428.317 62.077 428.187 61.9464C428.056 61.8157 427.879 61.7423 427.694 61.7423H129.309C129.125 61.7423 128.948 61.8157 128.817 61.9464C128.687 62.077 128.613 62.2542 128.613 62.4389V313.635C128.613 313.82 128.687 313.997 128.817 314.128C128.948 314.259 129.125 314.332 129.309 314.332ZM427.012 312.939H129.992V63.1355H427.012V312.939Z" fill="#231F20"/>
<path d="M285.465 306.823H410.929C411.112 306.819 411.287 306.745 411.417 306.615C411.547 306.485 411.621 306.31 411.625 306.126V75.0329C411.625 74.8481 411.552 74.671 411.421 74.5403C411.291 74.4097 411.113 74.3363 410.929 74.3363H285.465C285.28 74.3363 285.103 74.4097 284.972 74.5403C284.842 74.671 284.768 74.8481 284.768 75.0329V306.126C284.772 306.31 284.846 306.485 284.976 306.615C285.106 306.745 285.281 306.819 285.465 306.823ZM410.232 305.43H286.161V75.7294H410.232V305.43Z" fill="#D1D3D4"/>
<path d="M146.032 306.823H271.538C271.722 306.819 271.897 306.745 272.027 306.615C272.156 306.485 272.231 306.31 272.234 306.126V75.0329C272.234 74.8481 272.161 74.671 272.03 74.5403C271.9 74.4097 271.723 74.3363 271.538 74.3363H146.074C145.889 74.3363 145.712 74.4097 145.582 74.5403C145.451 74.671 145.378 74.8481 145.378 75.0329V306.126C145.381 306.303 145.449 306.473 145.57 306.601C145.691 306.73 145.856 306.809 146.032 306.823ZM270.8 305.43H146.728V75.7294H270.8V305.43Z" fill="#D1D3D4"/>
<path d="M95.8317 348.492H461.168L427.692 313.635H129.307L95.8317 348.492Z" fill="white"/>
<path d="M95.8333 349.188H461.17C461.305 349.187 461.437 349.147 461.551 349.073C461.664 348.999 461.754 348.894 461.81 348.77C461.865 348.645 461.881 348.507 461.856 348.373C461.831 348.239 461.767 348.115 461.671 348.018L428.251 313.19C428.188 313.119 428.111 313.063 428.024 313.024C427.938 312.986 427.844 312.966 427.75 312.967H129.309C129.214 312.966 129.121 312.986 129.034 313.024C128.948 313.063 128.871 313.119 128.808 313.19L95.3877 348.018C95.2921 348.115 95.2277 348.239 95.2029 348.373C95.178 348.507 95.1939 348.645 95.2485 348.77C95.3 348.886 95.3813 348.985 95.4841 349.059C95.5869 349.132 95.7075 349.177 95.8333 349.188ZM459.526 347.809H97.4765L129.615 314.374H427.401L459.526 347.809Z" fill="#231F20"/>
<path d="M461.168 62.4389V348.492L427.692 313.635V62.4389H461.168Z" fill="white"/>
<path d="M461.171 349.188C461.259 349.203 461.348 349.203 461.436 349.188C461.563 349.136 461.672 349.047 461.748 348.933C461.825 348.819 461.867 348.685 461.867 348.547V62.4389C461.867 62.2542 461.794 62.077 461.663 61.9464C461.533 61.8157 461.356 61.7423 461.171 61.7423H427.751C427.66 61.7423 427.57 61.7604 427.487 61.7956C427.403 61.8308 427.327 61.8823 427.263 61.9472C427.2 62.012 427.15 62.089 427.116 62.1734C427.083 62.2578 427.067 62.3481 427.069 62.4389V313.635C427.07 313.817 427.14 313.991 427.264 314.123L460.684 348.952C460.808 349.092 460.984 349.177 461.171 349.188ZM460.489 63.1355V346.778L428.461 313.343V63.1355H460.489Z" fill="#231F20"/>
<path d="M427.067 243.839C430.005 244.369 450.99 244.02 450.572 248.2C450.154 252.379 439.933 294.173 437.037 305.388C434.14 316.603 426.273 326.285 418.823 330.465C411.373 334.644 388.745 316.45 383.704 315.14C378.663 313.831 427.067 243.839 427.067 243.839Z" fill="#231F20"/>
<path d="M416.123 331.76C417.182 331.796 418.233 331.556 419.172 331.064C426.135 327.135 434.49 317.731 437.72 305.555C440.658 294.201 450.851 252.532 451.269 248.269C451.294 247.998 451.262 247.724 451.176 247.465C451.09 247.206 450.951 246.968 450.768 246.765C448.721 244.397 440.185 243.825 431.635 243.449C429.588 243.352 427.833 243.268 427.179 243.157C427.049 243.136 426.916 243.153 426.796 243.204C426.675 243.256 426.571 243.341 426.497 243.449C418.852 254.594 380.809 310.027 382.744 315.154C382.81 315.327 382.916 315.483 383.054 315.606C383.193 315.73 383.358 315.818 383.538 315.865C385.028 316.227 388.426 318.358 392.366 320.81C399.956 325.547 409.912 331.76 416.123 331.76ZM427.388 244.592C428.251 244.689 429.699 244.759 431.565 244.828C437.261 245.093 447.872 245.567 449.668 247.615C449.729 247.674 449.777 247.746 449.808 247.825C449.839 247.904 449.853 247.989 449.849 248.074C449.431 252.184 439.182 294.159 436.328 305.193C433.278 316.965 425.188 326.09 418.448 329.838C413.713 332.499 401.292 324.753 393.063 319.612C390.209 317.629 387.168 315.931 383.984 314.541C383.315 310.403 410.037 269.752 427.388 244.592Z" fill="#231F20"/>
<path d="M348.462 218.15C348.462 218.15 446.146 214.179 446.564 221.145C446.981 228.111 398.286 330.799 391.17 332.304C384.054 333.808 383.316 327.037 380.587 327.72C377.858 328.403 350.314 319.919 341.597 312.396C332.88 304.873 356.274 248.005 355.257 240.956C354.241 233.906 340.441 219.153 348.462 218.15Z" fill="white"/>
<path d="M389.233 333.237C389.932 333.235 390.627 333.155 391.308 333C396.112 331.997 414.591 294.995 422.319 279.127C434.573 253.953 447.482 225.06 447.259 221.145C447.161 219.627 446.966 216.074 397.352 216.339C373.15 216.45 348.614 217.453 348.433 217.467C347.864 217.481 347.308 217.642 346.82 217.935C346.332 218.228 345.928 218.643 345.648 219.139C344.381 221.688 347.124 226.383 350.021 231.357C352.123 234.937 354.282 238.657 354.644 241.109C354.992 243.407 352.304 252.156 349.199 262.271C342.975 282.569 335.274 307.826 341.234 312.967C350.007 320.49 377.815 329.127 380.809 328.361C381.421 328.222 381.965 328.779 382.884 329.754C383.603 330.784 384.55 331.635 385.651 332.239C386.753 332.843 387.978 333.184 389.233 333.237ZM400.373 217.607C429.351 217.607 445.685 219.069 445.811 221.159C446.006 224.294 434.866 250.011 421.01 278.473C403.534 314.485 393.341 331.203 391.03 331.649C387.047 332.485 385.348 330.59 383.858 328.862C382.828 327.72 381.867 326.661 380.405 327.024C378.066 327.595 350.786 319.375 342.083 311.908C336.778 307.366 345.022 280.479 350.438 262.688C353.725 251.975 356.315 243.519 355.939 240.9C355.563 238.281 353.293 234.296 351.135 230.591C348.67 226.411 345.871 221.577 346.804 219.696C346.987 219.417 347.237 219.188 347.532 219.03C347.826 218.871 348.155 218.789 348.489 218.791C368.624 218.024 386.072 217.662 400.429 217.662L400.373 217.607Z" fill="#231F20"/>
<path d="M170.637 310.083C170.637 310.083 155.737 309.665 153.802 308.69C151.866 307.715 140.698 293.226 138.08 289.771C135.462 286.316 134.766 282.318 132.97 281.496C131.173 280.674 130.073 279.281 129.391 281.496C128.709 283.711 132.427 299.607 134.961 308.272C137.495 316.937 140.336 328.57 142.411 329.949C144.486 331.328 150 329.531 151.518 328.013C153.24 326.618 155.107 325.413 157.088 324.418C157.088 324.418 174.898 324.558 175.19 324.154C175.483 323.75 170.637 310.083 170.637 310.083Z" fill="white"/>
<path d="M144.474 331.203C147.181 331.133 149.797 330.211 151.952 328.57C153.557 327.259 155.298 326.124 157.146 325.185C175.151 325.324 175.373 324.99 175.638 324.599C175.903 324.209 176.097 323.903 171.293 309.916C171.252 309.781 171.169 309.662 171.057 309.577C170.944 309.492 170.808 309.445 170.667 309.442C164.957 309.289 155.433 308.787 154.124 308.133C152.815 307.478 144.209 296.765 138.639 289.423C137.599 287.99 136.725 286.443 136.035 284.811C135.158 282.959 134.462 281.482 133.25 280.925C132.894 280.765 132.549 280.578 132.22 280.367C131.412 279.908 130.66 279.476 129.894 279.768C129.592 279.93 129.33 280.156 129.125 280.43C128.921 280.705 128.779 281.021 128.711 281.356C127.875 284.031 132.262 301.641 134.281 308.537C134.685 309.93 135.102 311.448 135.52 312.953C138.305 322.83 140.199 329.378 142.009 330.59C142.756 331.024 143.611 331.237 144.474 331.203ZM157.006 323.805C156.905 323.784 156.801 323.784 156.7 323.805C154.67 324.831 152.76 326.078 151.005 327.525C149.612 328.918 144.46 330.492 142.775 329.364C141.09 328.236 138.709 319.194 136.843 312.507C136.425 311.002 136.007 309.498 135.604 308.077C132.707 297.935 129.518 283.474 130.034 281.691C130.229 281.078 130.396 280.994 130.396 280.994C130.396 280.994 131.175 281.301 131.524 281.51C131.872 281.719 132.248 281.928 132.665 282.123C133.417 282.457 134.058 283.794 134.754 285.341C135.506 287.052 136.44 288.678 137.539 290.189C138.096 290.927 151.2 308.147 153.511 309.303C155.391 310.236 167.283 310.696 170.221 310.696C171.711 315.056 173.869 321.562 174.399 323.527C172.017 323.708 162.897 323.722 157.118 323.68L157.006 323.805Z" fill="#231F20"/>
<path d="M332.027 331.078C332.027 331.078 256.22 321.451 250.817 320.991C245.414 320.532 168.492 326.369 165.707 325.951C162.922 325.533 162.184 308.147 162.184 308.147C162.184 308.147 236.641 288.085 257.751 289.102C269.964 289.687 309.552 289.102 309.552 289.102L332.027 331.078Z" fill="#231F20"/>
<path d="M332.03 331.774C332.151 331.777 332.27 331.748 332.376 331.69C332.482 331.632 332.57 331.547 332.633 331.444C332.695 331.341 332.729 331.223 332.73 331.102C332.732 330.981 332.702 330.862 332.643 330.757L310.21 288.768C310.148 288.656 310.058 288.563 309.947 288.499C309.837 288.435 309.711 288.403 309.583 288.406C309.193 288.406 269.883 288.977 257.838 288.406C236.853 287.403 165.097 306.656 162.048 307.478C161.895 307.516 161.759 307.607 161.665 307.734C161.571 307.861 161.525 308.017 161.532 308.174C161.783 313.58 162.702 326.188 165.64 326.647C166.921 326.842 180.791 325.923 203.321 324.432C224.209 323.039 247.881 321.465 250.764 321.646C256.055 322.05 331.181 331.635 331.947 331.732L332.03 331.774ZM309.137 289.799L330.735 330.2C320.25 328.807 255.833 320.657 250.82 320.281C247.909 320.058 225.17 321.562 203.182 323.067C185.414 324.251 167.047 325.477 165.807 325.296C164.568 325.115 163.371 317.425 162.911 308.704C169.706 306.893 237.911 288.866 257.726 289.827C269.173 290.342 304.863 289.855 309.137 289.799Z" fill="#231F20"/>
<path d="M227.578 303.521C227.578 303.521 220.128 315.53 219.307 318.024C218.485 320.518 218.471 327.344 216.828 330.451C215.185 333.557 168.188 332.944 168.383 331.091C168.578 329.239 188.672 320.922 193.949 317.16C199.227 313.399 213.054 293.588 213.054 293.588L227.578 303.521Z" fill="white"/>
<path d="M192.892 333.279C204.659 333.279 216.44 332.652 217.428 330.785C218.417 328.918 218.904 325.463 219.252 322.538C219.372 321.086 219.609 319.646 219.963 318.233C220.603 316.338 225.616 308.021 228.178 303.884C228.274 303.733 228.307 303.552 228.271 303.377C228.234 303.203 228.131 303.049 227.983 302.95L213.487 293.017C213.337 292.913 213.153 292.873 212.973 292.904C212.793 292.935 212.633 293.036 212.527 293.184C212.387 293.379 198.671 313.009 193.547 316.631C189.417 319.119 185.144 321.361 180.75 323.346C170.766 328.194 167.841 329.782 167.702 331.008C167.646 331.509 167.981 331.872 168.705 332.095C170.724 332.721 181.794 333.279 192.892 333.279ZM226.647 303.716C225.143 306.154 219.392 315.558 218.654 317.801C218.266 319.3 218.005 320.828 217.874 322.37C217.724 325.027 217.165 327.644 216.217 330.13C215.465 330.952 207.764 331.899 192.683 331.941C181.112 332.011 171.796 331.426 169.387 330.855C173.25 328.541 177.244 326.452 181.349 324.599C185.815 322.579 190.158 320.295 194.354 317.759C199.228 314.318 210.925 297.879 213.265 294.549L226.647 303.716Z" fill="#231F20"/>
<path d="M362.262 321.451C361.008 322.287 355.536 330.311 332.031 331.133C308.525 331.955 269.814 260.78 269.814 260.78L228.958 308.76L210.201 296.89C210.201 296.89 235.864 225.533 247.45 218.206C259.036 210.878 278.085 216.269 286.44 221.647C294.795 227.024 334.871 282.109 334.871 282.109L362.262 321.451Z" fill="#231F20"/>
<path d="M331.627 331.788H332.058C353.141 331.05 359.908 324.586 362.123 322.468C362.359 322.245 362.526 322.078 362.638 321.994C362.717 321.945 362.784 321.88 362.837 321.803C362.89 321.726 362.926 321.64 362.944 321.548C362.973 321.364 362.933 321.176 362.833 321.019L335.373 281.677C333.716 279.406 294.99 226.411 286.747 221.02C278.99 215.977 259.398 209.791 247.088 217.579C235.419 224.948 210.591 293.686 209.491 296.611C209.437 296.76 209.436 296.922 209.486 297.071C209.537 297.22 209.637 297.348 209.769 297.433L228.54 309.303C228.683 309.39 228.852 309.424 229.018 309.399C229.184 309.373 229.335 309.29 229.445 309.163L269.633 261.964C276.317 273.889 283.609 285.463 291.481 296.639C308.191 319.96 321.67 331.788 331.627 331.788ZM361.329 321.284L361.162 321.437C359.031 323.471 352.57 329.657 332.017 330.381H331.613C308.762 330.381 270.802 261.086 270.413 260.376C270.361 260.278 270.285 260.194 270.193 260.133C270.1 260.072 269.994 260.036 269.883 260.028C269.77 260.012 269.654 260.026 269.547 260.067C269.44 260.109 269.345 260.177 269.271 260.264L228.888 307.77L211.106 296.528C213.473 290.008 237.146 225.478 247.882 218.735C253.689 215.057 270.858 212.285 286.036 222.162C294.113 227.414 333.883 281.9 334.286 282.457L361.329 321.284Z" fill="#231F20"/>
<path d="M342.152 272.691C342.152 271.869 331.945 258.412 329.397 257.158C326.949 255.837 324.574 254.386 322.281 252.811L326.097 244.146C326.097 244.146 329.118 245.358 328.492 242.669C327.865 239.98 333.268 236.219 333.268 236.219C333.268 236.219 340.314 242.488 340.481 249.704C340.621 255.514 356.23 264.82 356.23 264.82L342.152 272.691Z" fill="white"/>
<path d="M342.153 273.332C342.274 273.333 342.393 273.304 342.501 273.248L356.565 265.377C356.672 265.316 356.761 265.228 356.823 265.122C356.885 265.015 356.918 264.894 356.918 264.771C356.918 264.648 356.885 264.527 356.823 264.42C356.761 264.314 356.672 264.226 356.565 264.165C352.387 261.63 341.248 254.079 341.164 249.635C340.983 242.209 334.006 235.898 333.714 235.703C333.59 235.608 333.438 235.557 333.282 235.557C333.126 235.557 332.975 235.608 332.851 235.703C332.266 236.107 327.1 239.813 327.81 242.878C327.935 243.407 327.81 243.644 327.81 243.7C327.81 243.756 326.863 243.7 326.417 243.561C326.251 243.495 326.065 243.496 325.899 243.563C325.733 243.631 325.6 243.759 325.526 243.923L321.711 252.588C321.646 252.735 321.634 252.901 321.677 253.055C321.721 253.21 321.816 253.345 321.947 253.438C324.265 255.036 326.668 256.505 329.147 257.84C331.444 258.969 341.011 271.577 341.526 272.858C341.542 272.959 341.58 273.056 341.638 273.14C341.695 273.225 341.772 273.295 341.86 273.346C341.957 273.363 342.057 273.359 342.153 273.332ZM354.852 264.736L342.431 271.702C340.454 268.261 331.96 257.604 329.69 256.503C327.444 255.291 325.264 253.961 323.159 252.519L326.487 244.954C326.856 245.078 327.249 245.116 327.635 245.065C328.021 245.014 328.39 244.876 328.715 244.661C328.989 244.377 329.178 244.021 329.259 243.634C329.34 243.247 329.311 242.845 329.175 242.474C328.826 240.969 331.305 238.504 333.213 237.069C334.675 238.462 339.66 243.839 339.785 249.677C339.911 254.984 351.148 262.438 354.852 264.736Z" fill="#231F20"/>
<path d="M362.053 166.813C375.811 149.886 398.662 158.454 405.346 176.774C407.991 184.06 410.54 190.705 415.469 196.751C419.869 202.198 426.748 207.005 427.013 214.667C427.194 220.017 423.629 224.962 419.034 227.693C414.439 230.423 408.98 231.287 403.716 231.58C391.81 232.234 379.898 230.383 368.751 226.146C364.211 224.419 358.906 221.661 356.511 217.147C353.572 211.644 356.789 207.465 358.015 201.822C359.017 197.155 357.499 192.391 356.497 187.724C354.798 180.006 357.123 172.929 362.053 166.813Z" fill="white"/>
<path d="M399.079 232.402C400.625 232.402 402.185 232.402 403.73 232.276C408.367 232.012 414.327 231.329 419.438 228.292C424.548 225.255 427.932 219.822 427.793 214.639C427.5 208.607 423.518 204.427 419.619 200.248C418.338 198.855 417.126 197.629 416.054 196.292C411.319 190.44 408.813 184.129 406.042 176.509C402.38 166.464 393.732 158.928 384.013 157.298C375.449 155.904 367.47 159.067 361.565 166.339C356.107 173.054 354.157 180.27 355.787 187.877C355.954 188.643 356.135 189.423 356.316 190.19C357.193 193.993 358.112 197.935 357.304 201.669C356.963 203.113 356.54 204.536 356.037 205.932C354.784 209.652 353.6 213.176 355.87 217.439C357.875 221.201 362.108 224.335 368.472 226.759C378.25 230.474 388.62 232.386 399.079 232.402ZM380.072 158.37C381.318 158.374 382.561 158.482 383.79 158.691C393.022 160.237 401.252 167.426 404.677 177.011C407.462 184.756 410.052 191.165 414.912 197.197C416.026 198.59 417.321 199.983 418.56 201.237C422.278 205.152 426.122 209.192 426.303 214.695C426.47 219.376 423.518 224.238 418.672 227.108C413.826 229.978 408.075 230.646 403.591 230.883C391.818 231.504 380.044 229.673 369.015 225.506C362.986 223.207 358.989 220.281 357.151 216.826C355.16 213.093 356.204 210 357.416 206.42C357.936 204.975 358.368 203.5 358.711 202.003C359.588 197.963 358.641 193.867 357.722 189.925C357.541 189.159 357.36 188.392 357.193 187.626C355.661 180.479 357.513 173.695 362.693 167.245C367.358 161.449 373.443 158.37 380.072 158.37Z" fill="#231F20"/>
<path d="M413.171 218.15C418.741 225.338 417.724 258.732 404.482 276.118C391.239 293.505 384.332 316.157 354.254 327.748L330.456 279.155C330.456 279.155 350.118 261.769 350.912 256.238C351.706 250.707 347.89 242.307 350.634 234.979C362.261 204.274 407.643 210.975 413.171 218.15Z" fill="#125B50"/>
<path d="M375.364 210.85L375.434 224.349C375.434 224.349 374.334 229.922 383.343 227.804C392.353 225.687 396.363 214.583 396.363 214.583L395.556 194.857C395.556 194.857 381.464 187.306 383.469 172.803C381.692 176.156 378.927 178.88 375.548 180.605C372.17 182.329 368.342 182.972 364.586 182.444C364.586 182.444 364.364 195.4 365.436 202.38C366.508 209.359 375.364 210.85 375.364 210.85Z" fill="white"/>
<path d="M379.736 228.988C381.005 228.966 382.267 228.793 383.495 228.473C392.769 226.272 396.849 215.294 397.016 214.82C397.031 214.733 397.031 214.643 397.016 214.556L396.209 194.829C396.204 194.706 396.167 194.588 396.101 194.485C396.035 194.382 395.942 194.298 395.833 194.244C395.707 194.174 382.2 186.735 384.122 172.901C384.142 172.738 384.104 172.573 384.015 172.436C383.926 172.298 383.791 172.196 383.635 172.148C383.477 172.094 383.305 172.1 383.151 172.164C382.997 172.228 382.872 172.347 382.799 172.497C381.109 175.723 378.461 178.347 375.219 180.006C371.977 181.665 368.301 182.278 364.697 181.761C364.599 181.749 364.501 181.758 364.407 181.787C364.314 181.816 364.227 181.864 364.153 181.928C364.078 181.992 364.017 182.071 363.974 182.16C363.931 182.248 363.906 182.345 363.903 182.444C363.903 182.973 363.694 195.525 364.752 202.477C365.727 208.885 372.62 210.947 374.681 211.421L374.75 224.349C374.658 224.958 374.709 225.58 374.9 226.166C375.091 226.751 375.417 227.284 375.85 227.721C376.927 228.64 378.324 229.096 379.736 228.988ZM395.666 214.472C395.192 215.67 391.224 225.213 383.133 227.136C380.014 227.874 377.8 227.735 376.756 226.718C376.481 226.419 376.277 226.062 376.159 225.674C376.041 225.286 376.011 224.876 376.073 224.475V210.85C376.069 210.686 376.009 210.529 375.902 210.404C375.796 210.28 375.65 210.196 375.488 210.167C375.405 210.167 367.133 208.663 366.131 202.268C365.451 195.944 365.167 189.583 365.281 183.224C368.596 183.573 371.944 183.038 374.986 181.676C378.028 180.313 380.656 178.17 382.604 175.464C382.521 187.264 392.839 194.035 394.886 195.261L395.666 214.472Z" fill="#231F20"/>
<path d="M391.292 194.118C391.764 192.594 392.745 191.278 394.071 190.39C395.397 189.503 396.987 189.097 398.575 189.242C402.488 189.855 402.433 194.285 401.207 197.141C400.832 198.008 400.289 198.791 399.61 199.447C398.93 200.102 398.128 200.616 397.249 200.959C396.37 201.303 395.431 201.468 394.488 201.447C393.544 201.425 392.615 201.216 391.752 200.833" fill="white"/>
<path d="M394.664 202.143C396.194 202.145 397.691 201.698 398.969 200.856C400.246 200.013 401.248 198.814 401.849 197.406C402.338 196.37 402.602 195.242 402.624 194.097C402.645 192.951 402.424 191.814 401.974 190.761C401.637 190.16 401.162 189.647 400.588 189.264C400.015 188.882 399.359 188.64 398.674 188.56C396.916 188.385 395.151 188.827 393.683 189.811C392.215 190.794 391.134 192.258 390.625 193.951C390.604 194.043 390.6 194.137 390.615 194.23C390.629 194.323 390.662 194.412 390.711 194.493C390.76 194.573 390.825 194.643 390.901 194.698C390.977 194.753 391.063 194.793 391.155 194.815C391.246 194.837 391.341 194.84 391.434 194.826C391.527 194.811 391.616 194.778 391.696 194.729C391.776 194.68 391.846 194.615 391.901 194.539C391.956 194.463 391.996 194.377 392.018 194.285C392.461 192.938 393.342 191.776 394.52 190.986C395.698 190.196 397.106 189.823 398.521 189.925C398.995 189.973 399.45 190.135 399.847 190.397C400.245 190.659 400.573 191.013 400.805 191.429C401.157 192.297 401.323 193.229 401.292 194.165C401.261 195.101 401.033 196.021 400.624 196.863C400.288 197.647 399.799 198.357 399.187 198.95C398.574 199.544 397.849 200.009 397.054 200.319C396.259 200.629 395.411 200.778 394.558 200.756C393.705 200.734 392.865 200.543 392.088 200.192C391.919 200.121 391.729 200.117 391.558 200.182C391.387 200.247 391.247 200.375 391.169 200.541C391.132 200.625 391.112 200.715 391.11 200.807C391.108 200.899 391.125 200.99 391.158 201.076C391.192 201.161 391.242 201.239 391.306 201.305C391.37 201.371 391.446 201.424 391.531 201.46C392.517 201.899 393.584 202.132 394.664 202.143Z" fill="#231F20"/>
<path d="M373.192 189.423C373.192 189.423 368.207 196.278 369.28 197.545C370.352 198.813 373.457 198.13 373.457 198.13" fill="white"/>
<path d="M371.727 199.008C372.382 199.001 373.034 198.935 373.677 198.813C373.862 198.774 374.023 198.664 374.126 198.506C374.23 198.348 374.266 198.155 374.227 197.97C374.188 197.786 374.078 197.624 373.92 197.521C373.762 197.417 373.569 197.381 373.385 197.42C372.479 197.615 370.419 197.782 369.82 197.072C369.597 196.431 371.435 193.018 373.761 189.799C373.816 189.727 373.856 189.645 373.879 189.556C373.901 189.468 373.906 189.376 373.891 189.286C373.877 189.196 373.844 189.11 373.796 189.033C373.747 188.956 373.683 188.89 373.607 188.838C373.459 188.733 373.275 188.69 373.096 188.719C372.916 188.748 372.755 188.845 372.647 188.991C370.224 192.321 367.578 196.584 368.761 197.963C369.153 198.338 369.62 198.625 370.132 198.806C370.643 198.986 371.187 199.055 371.727 199.008Z" fill="#231F20"/>
<path d="M377.138 188.333C376.53 188.315 376.072 187.159 376.113 185.752C376.154 184.345 376.68 183.218 377.287 183.236C377.894 183.254 378.353 184.409 378.312 185.817C378.271 187.224 377.745 188.35 377.138 188.333Z" fill="#231F20"/>
<path d="M367.767 189.423C367.159 189.405 366.7 188.249 366.742 186.842C366.783 185.435 367.309 184.308 367.916 184.326C368.523 184.344 368.982 185.499 368.941 186.906C368.9 188.314 368.374 189.44 367.767 189.423Z" fill="#231F20"/>
<path d="M375.362 210.85C375.362 210.85 380.487 211.783 386.586 207.785C386.586 207.785 384.33 217.272 375.446 218.15L375.362 210.85Z" fill="#231F20"/>
<path d="M375.407 218.846C384.737 217.927 387.174 208.036 387.202 207.938C387.236 207.803 387.228 207.661 387.178 207.531C387.128 207.402 387.039 207.29 386.923 207.214C386.808 207.136 386.672 207.094 386.533 207.094C386.394 207.094 386.258 207.136 386.143 207.214C383.041 209.448 379.244 210.5 375.435 210.181C375.334 210.167 375.232 210.173 375.134 210.199C375.036 210.226 374.944 210.272 374.864 210.334C374.784 210.401 374.721 210.484 374.677 210.578C374.634 210.672 374.612 210.774 374.613 210.878V218.178C374.613 218.272 374.633 218.366 374.671 218.452C374.709 218.539 374.766 218.616 374.836 218.679C374.914 218.747 375.005 218.797 375.103 218.825C375.202 218.854 375.305 218.862 375.407 218.846ZM385.336 209.331C384.305 211.881 381.701 216.45 376.089 217.37V211.63C379.324 211.731 382.524 210.935 385.336 209.331Z" fill="#231F20"/>
<path d="M380.977 194.118C380.977 194.118 380.977 207.813 368.959 203.397L380.977 194.118Z" fill="white"/>
<path d="M373.304 204.971C374.822 205.007 376.313 204.563 377.565 203.703C381.617 200.917 381.742 194.397 381.742 194.118C381.739 193.935 381.664 193.76 381.534 193.63C381.405 193.5 381.229 193.425 381.046 193.422C380.861 193.422 380.684 193.495 380.554 193.626C380.423 193.756 380.35 193.934 380.35 194.118C380.35 194.118 380.35 200.151 376.841 202.561C374.989 203.856 372.44 203.954 369.265 202.742C369.093 202.685 368.906 202.697 368.743 202.777C368.58 202.856 368.454 202.996 368.392 203.166C368.331 203.337 368.338 203.525 368.413 203.69C368.487 203.855 368.623 203.985 368.792 204.051C370.231 204.616 371.758 204.927 373.304 204.971Z" fill="#231F20"/>
<path d="M298.164 260.724C298.776 260.515 314.512 256.545 314.512 256.545C314.512 256.545 288.221 214.932 287.609 214.751C286.996 214.57 265.05 210.153 265.05 210.153L298.164 260.724Z" fill="white"/>
<path d="M298.164 261.421H298.387C298.86 261.254 308.399 258.857 314.679 257.241C314.785 257.214 314.884 257.162 314.966 257.09C315.048 257.018 315.113 256.927 315.153 256.825C315.194 256.723 315.21 256.613 315.2 256.504C315.191 256.395 315.155 256.289 315.097 256.196C288.639 214.402 288.124 214.193 287.832 214.082C287.191 213.873 268.852 210.209 265.176 209.471C265.041 209.444 264.901 209.459 264.774 209.512C264.647 209.565 264.539 209.655 264.463 209.77C264.387 209.885 264.346 210.019 264.347 210.157C264.347 210.295 264.389 210.429 264.466 210.543L297.579 261.114C297.645 261.208 297.733 261.285 297.835 261.338C297.936 261.391 298.049 261.42 298.164 261.421ZM313.412 256.141C310.209 256.949 300.879 259.303 298.47 259.93L266.526 211.17C274.742 212.814 285.701 215.029 287.233 215.35C288.806 217.384 303.428 240.343 313.412 256.141Z" fill="#231F20"/>
<path d="M314.513 256.586L333.27 246.389L307.884 209.582L287.609 214.765L314.513 256.586Z" fill="white"/>
<path d="M314.511 257.283C314.628 257.282 314.742 257.253 314.845 257.199L333.602 247.002C333.686 246.955 333.759 246.891 333.817 246.814C333.875 246.738 333.915 246.65 333.937 246.556C333.963 246.462 333.968 246.363 333.951 246.266C333.934 246.17 333.896 246.078 333.839 245.999L308.454 209.192C308.375 209.075 308.261 208.985 308.129 208.935C307.997 208.885 307.853 208.878 307.716 208.913L287.441 214.082C287.332 214.107 287.231 214.159 287.146 214.231C287.062 214.304 286.995 214.396 286.954 214.5C286.917 214.605 286.904 214.717 286.916 214.828C286.928 214.939 286.965 215.046 287.023 215.141L313.926 256.935C313.987 257.037 314.072 257.123 314.174 257.184C314.277 257.244 314.392 257.279 314.511 257.283ZM332.252 246.138L314.706 255.667L288.666 215.196L307.549 210.376L332.252 246.138Z" fill="#231F20"/>
<path d="M391.293 266.729C391.293 266.729 372.745 297.378 358.11 302.95C343.475 308.523 301.811 265.725 301.811 265.725C301.811 265.725 296.714 268.066 291.465 261.17C288.258 256.902 285.71 252.178 283.903 247.155C283.903 247.155 281.188 241.582 282.218 238.225C283.096 235.313 285.867 241.011 285.867 241.011C285.867 241.011 290.532 248.269 293.303 247.587C296.074 246.904 293.707 239.507 294.542 237.333C295.378 235.16 299.472 242.906 300.432 246.208C301.393 249.509 306.504 255.597 308.718 257.52C310.932 259.442 343.948 282.053 346.733 281.844C349.518 281.635 369.584 257.213 369.584 257.213L391.293 266.729Z" fill="white"/>
<path d="M355.216 304.079C356.289 304.096 357.355 303.916 358.363 303.549C373.04 297.977 391.129 268.358 391.894 267.091C391.936 267.001 391.957 266.904 391.957 266.805C391.957 266.707 391.936 266.609 391.894 266.52C391.864 266.428 391.815 266.343 391.75 266.271C391.686 266.199 391.607 266.141 391.518 266.102L369.879 256.573C369.739 256.513 369.584 256.5 369.436 256.535C369.288 256.57 369.155 256.651 369.057 256.768C359.449 268.54 348.448 280.883 346.694 281.161C343.909 281.161 311.993 259.61 309.096 257.102C306.854 255.138 301.911 249.161 301.02 246.11C300.351 243.784 297.023 236.442 294.935 236.358C294.679 236.347 294.428 236.424 294.223 236.576C294.017 236.728 293.87 236.946 293.807 237.194C293.514 238.617 293.49 240.081 293.737 241.513C293.932 243.714 294.197 246.723 293.041 247.016C291.495 247.378 288.195 243.575 286.371 240.733C285.661 239.256 284.185 236.637 282.764 236.748C282.346 236.748 281.789 237.041 281.483 238.058C280.383 241.694 283.084 247.266 283.21 247.503C285.017 252.575 287.59 257.339 290.841 261.63C295.492 267.759 300.087 267.021 301.549 266.575C305.518 270.504 339.091 304.079 355.216 304.079ZM390.279 267.119C387.494 271.632 370.909 297.391 357.876 302.323C352.139 304.483 340.748 298.826 324.929 285.94C312.856 276.104 302.426 265.461 302.315 265.349C302.216 265.248 302.087 265.18 301.947 265.155C301.808 265.13 301.663 265.149 301.535 265.21C301.34 265.294 296.842 267.202 292.024 260.863C288.869 256.65 286.354 251.993 284.561 247.043C284.561 246.904 281.957 241.652 282.89 238.531C282.914 238.398 282.971 238.274 283.057 238.169C283.976 239.136 284.717 240.259 285.243 241.485C286.106 242.878 290.381 249.189 293.473 248.451C295.77 247.879 295.464 244.48 295.199 241.485C295.041 240.312 295.017 239.125 295.13 237.946C296.271 238.81 298.945 243.728 299.781 246.584C300.783 250.039 305.921 256.169 308.261 258.23C310.085 259.832 343.073 282.624 346.791 282.624C349.702 282.415 364.713 264.36 369.795 258.147L390.279 267.119Z" fill="#231F20"/>
<path d="M369.655 257.896C369.786 257.896 369.914 257.86 370.025 257.791C370.135 257.722 370.225 257.623 370.282 257.506L381.088 235.076C381.167 234.912 381.178 234.723 381.118 234.55C381.058 234.378 380.932 234.236 380.767 234.157C380.603 234.078 380.414 234.067 380.242 234.127C380.069 234.187 379.928 234.313 379.848 234.477L369.029 256.907C368.989 256.988 368.965 257.077 368.959 257.167C368.954 257.258 368.966 257.348 368.996 257.434C369.026 257.519 369.072 257.598 369.133 257.666C369.194 257.733 369.267 257.788 369.349 257.826C369.443 257.876 369.549 257.9 369.655 257.896Z" fill="#231F20"/>
<path d="M391.296 267.425C391.426 267.425 391.554 267.389 391.665 267.32C391.776 267.251 391.865 267.152 391.922 267.035C392.048 266.756 405.374 239.284 408.061 235.884C408.175 235.74 408.227 235.557 408.206 235.374C408.186 235.191 408.093 235.024 407.95 234.909C407.879 234.851 407.798 234.808 407.71 234.782C407.622 234.756 407.53 234.748 407.439 234.758C407.348 234.769 407.26 234.797 407.18 234.842C407.101 234.887 407.031 234.948 406.975 235.021C404.19 238.545 391.226 265.294 390.669 266.436C390.592 266.601 390.582 266.789 390.642 266.961C390.702 267.133 390.826 267.274 390.989 267.355C391.084 267.405 391.189 267.429 391.296 267.425Z" fill="#231F20"/>
<path d="M328.492 331.203C328.677 331.231 328.865 331.184 329.015 331.073C329.165 330.962 329.265 330.796 329.293 330.611C329.321 330.426 329.274 330.238 329.163 330.088C329.052 329.937 328.886 329.837 328.701 329.81C312.465 324.502 288.152 289.297 287.901 288.935C287.795 288.787 287.634 288.686 287.455 288.655C287.275 288.624 287.09 288.664 286.94 288.768C286.864 288.818 286.799 288.884 286.749 288.959C286.698 289.035 286.664 289.121 286.647 289.21C286.63 289.3 286.631 289.392 286.65 289.481C286.67 289.57 286.707 289.655 286.759 289.729C287.762 291.192 311.587 325.672 328.27 331.133L328.492 331.203Z" fill="white"/>
<path d="M333.268 236.163C331.539 234.893 329.67 233.827 327.698 232.987C323.144 230.981 317.073 231.468 318.591 233.433C320.108 235.397 330.399 239.674 330.399 239.674C330.399 239.674 329.508 244.369 334.883 246.444" fill="white"/>
<path d="M334.941 247.141C335.125 247.174 335.316 247.133 335.47 247.026C335.624 246.919 335.729 246.755 335.762 246.57C335.795 246.385 335.754 246.195 335.647 246.041C335.54 245.886 335.376 245.781 335.191 245.748C330.443 243.923 331.097 239.925 331.139 239.757C331.165 239.601 331.137 239.441 331.062 239.303C330.986 239.164 330.866 239.054 330.721 238.991C326.655 237.305 320.236 234.296 319.205 232.973C319.163 232.923 319.13 232.867 319.108 232.806C319.498 232.221 323.689 231.914 327.463 233.572C329.332 234.396 331.111 235.414 332.768 236.609C332.9 236.733 333.075 236.803 333.256 236.803C333.437 236.803 333.611 236.733 333.743 236.609C333.87 236.481 333.941 236.308 333.941 236.128C333.941 235.948 333.87 235.776 333.743 235.648C331.976 234.311 330.055 233.193 328.02 232.318C324.246 230.66 319.178 230.507 317.994 232.012C317.791 232.275 317.69 232.603 317.708 232.935C317.726 233.267 317.862 233.582 318.091 233.823C319.484 235.703 327.505 239.158 329.705 240.092C329.641 241.641 330.095 243.167 330.995 244.429C331.895 245.69 333.191 246.615 334.676 247.057C334.759 247.1 334.848 247.129 334.941 247.141Z" fill="#231F20"/>
<path d="M391.169 319.946C391.317 319.945 391.461 319.897 391.581 319.81C391.701 319.723 391.791 319.6 391.837 319.459C399.649 294.87 437.247 227.163 437.651 226.481C437.716 226.323 437.72 226.146 437.664 225.984C437.607 225.823 437.493 225.688 437.343 225.605C437.193 225.523 437.018 225.498 436.852 225.536C436.685 225.574 436.538 225.673 436.439 225.812C436.049 226.495 398.382 294.327 390.487 319.041C390.434 319.216 390.453 319.405 390.539 319.567C390.625 319.729 390.771 319.85 390.946 319.905C391.017 319.934 391.093 319.948 391.169 319.946Z" fill="#D1D3D4"/>
<path d="M95.8177 348.506H461.168V357.575H95.8177V348.506Z" fill="white"/>
<path d="M95.8347 358.258H461.171C461.356 358.258 461.533 358.184 461.663 358.054C461.794 357.923 461.867 357.746 461.867 357.561V348.506C461.867 348.321 461.794 348.144 461.663 348.013C461.533 347.883 461.356 347.809 461.171 347.809H95.8347C95.65 347.809 95.4729 347.883 95.3423 348.013C95.2118 348.144 95.1384 348.321 95.1384 348.506V357.561C95.1384 357.746 95.2118 357.923 95.3423 358.054C95.4729 358.184 95.65 358.258 95.8347 358.258ZM460.489 356.865H96.517V349.188H460.489V356.865Z" fill="#231F20"/>
<path d="M352.083 125.604C352.186 125.604 352.288 125.582 352.382 125.538C352.476 125.495 352.559 125.432 352.626 125.353C352.742 125.21 352.796 125.028 352.778 124.845C352.76 124.663 352.67 124.495 352.529 124.378L321.253 98.549C321.123 98.4214 320.948 98.3499 320.766 98.3499C320.583 98.3499 320.408 98.4214 320.278 98.549C320.163 98.6917 320.108 98.8741 320.127 99.0567C320.145 99.2393 320.234 99.4073 320.376 99.5242L351.637 125.451C351.764 125.552 351.921 125.606 352.083 125.604Z" fill="#D1D3D4"/>
<path d="M236.588 142.321C236.73 142.32 236.868 142.275 236.983 142.193C237.099 142.111 237.187 141.996 237.235 141.863C237.284 141.73 237.29 141.585 237.254 141.448C237.218 141.31 237.141 141.188 237.034 141.095L197.152 107.66C197.009 107.542 196.826 107.485 196.641 107.501C196.456 107.516 196.285 107.603 196.164 107.744C196.046 107.887 195.989 108.07 196.004 108.255C196.02 108.44 196.107 108.612 196.247 108.733L236.142 142.168C236.27 142.267 236.427 142.321 236.588 142.321Z" fill="#D1D3D4"/>
<path d="M336.442 163.121C336.543 163.121 336.643 163.099 336.734 163.055C336.826 163.012 336.907 162.949 336.971 162.87C337.089 162.727 337.146 162.543 337.13 162.359C337.115 162.174 337.027 162.002 336.887 161.881L312.226 141.095C312.156 141.036 312.074 140.991 311.986 140.963C311.899 140.935 311.806 140.925 311.714 140.932C311.623 140.94 311.533 140.966 311.451 141.008C311.37 141.051 311.297 141.109 311.237 141.179C311.178 141.249 311.133 141.331 311.105 141.419C311.077 141.507 311.067 141.599 311.074 141.691C311.082 141.783 311.108 141.872 311.15 141.954C311.193 142.036 311.251 142.109 311.321 142.168L335.996 162.954C336.12 163.061 336.278 163.121 336.442 163.121Z" fill="#D1D3D4"/>
<path d="M176.026 259.345C176.125 259.344 176.224 259.323 176.315 259.282C176.406 259.241 176.488 259.182 176.555 259.108C176.674 258.967 176.734 258.784 176.721 258.599C176.708 258.415 176.623 258.242 176.485 258.119L160.722 244.369C160.654 244.304 160.574 244.253 160.486 244.22C160.398 244.186 160.304 244.171 160.211 244.175C160.117 244.179 160.024 244.202 159.94 244.242C159.855 244.283 159.779 244.34 159.717 244.411C159.655 244.481 159.608 244.564 159.578 244.653C159.549 244.743 159.538 244.837 159.546 244.931C159.554 245.024 159.581 245.115 159.625 245.198C159.669 245.281 159.73 245.355 159.803 245.414L175.566 259.178C175.695 259.285 175.858 259.344 176.026 259.345Z" fill="#D1D3D4"/>
<path d="M227.259 211.714C227.404 211.716 227.546 211.672 227.665 211.59C227.784 211.507 227.875 211.389 227.924 211.253C227.973 211.116 227.978 210.968 227.939 210.828C227.899 210.688 227.817 210.564 227.704 210.474L182.838 173.124C182.769 173.064 182.689 173.019 182.602 172.99C182.515 172.962 182.424 172.952 182.333 172.959C182.242 172.967 182.154 172.993 182.073 173.036C181.992 173.078 181.921 173.137 181.863 173.207C181.745 173.35 181.688 173.534 181.704 173.719C181.719 173.904 181.806 174.075 181.947 174.196L226.813 211.546C226.938 211.652 227.095 211.711 227.259 211.714Z" fill="#D1D3D4"/>
</g>
<defs>
<filter id="filter0_d_722_381" x="80.1367" y="50.7423" width="396.73" height="326.515" filterUnits="userSpaceOnUse" color-interpolation-filters="sRGB">
<feFlood flood-opacity="0" result="BackgroundImageFix"/>
<feColorMatrix in="SourceAlpha" type="matrix" values="0 0 0 0 0 0 0 0 0 0 0 0 0 0 0 0 0 0 127 0" result="hardAlpha"/>
<feOffset dy="4"/>
<feGaussianBlur stdDeviation="7.5"/>
<feComposite in2="hardAlpha" operator="out"/>
<feColorMatrix type="matrix" values="0 0 0 0 0 0 0 0 0 0 0 0 0 0 0 0 0 0 0.25 0"/>
<feBlend mode="normal" in2="BackgroundImageFix" result="effect1_dropShadow_722_381"/>
<feBlend mode="normal" in="SourceGraphic" in2="effect1_dropShadow_722_381" result="shape"/>
</filter>
</defs>
</svg>
