<svg width="583" height="530" viewBox="0 0 583 530" fill="none" xmlns="http://www.w3.org/2000/svg">
<g clip-path="url(#clip0_794_187)">
<path d="M280.238 106.126C286.729 99.5199 295.398 97.5147 299.602 101.646C303.805 105.778 301.949 114.48 295.455 121.087C292.897 123.762 289.736 125.786 286.236 126.988L258.38 154.629L245.688 141.281L274.496 115.449C275.638 111.927 277.607 108.73 280.238 106.126V106.126Z" fill="#FFB6B6"/>
<path d="M191.154 83.3095L220.361 148.102L266.998 122.857L283.689 131.715C283.689 131.715 245.564 195.454 219.459 188.198C193.355 180.943 147 115.152 155.352 94.8465C163.704 74.5414 191.154 83.3095 191.154 83.3095Z" fill="#E6E6E6"/>
<path d="M326.538 119.883C319.758 113.575 317.517 104.963 321.533 100.648C325.548 96.3342 334.298 97.9517 341.08 104.263C343.823 106.747 345.932 109.852 347.23 113.319L375.62 140.411L362.622 153.462L336.015 125.369C332.463 124.323 329.214 122.442 326.538 119.883Z" fill="#A0616A"/>
<path d="M469.542 124.059L414.744 182.4C414.744 182.4 402.438 194.576 382.192 177.017C361.946 159.458 339.438 130.651 339.438 130.651L352.065 116.907L374.433 136.863C374.433 136.863 387.713 142.206 388.636 145.664C389.56 149.121 386.978 150.552 391.127 149.444C395.276 148.336 395.357 145.864 395.617 149.613C395.877 153.361 393.343 157.742 398.136 153.498C402.93 149.255 404.36 151.837 404.36 151.837L439.384 105.443C439.384 105.443 462.015 87.547 468.521 103.589C475.027 119.631 469.542 124.059 469.542 124.059V124.059Z" fill="#FF6363"/>
<path d="M178.348 515.124L199.644 515.122L209.775 432.979L178.344 432.981L178.348 515.124Z" fill="#FFB6B6"/>
<path d="M251.311 514.641C251.974 515.758 252.324 519.362 252.324 520.661C252.324 524.653 249.088 527.889 245.096 527.889H179.145C176.422 527.889 174.214 525.681 174.214 522.958V520.212C174.214 520.212 170.951 511.96 177.669 501.788C177.669 501.788 186.017 509.752 198.491 497.278L202.17 490.614L228.798 510.088L243.558 511.905C246.787 512.303 249.65 511.843 251.311 514.641H251.311Z" fill="#2F2E41"/>
<path d="M423.794 136.057H476.57V58.0738H423.794V136.057Z" fill="#2F2E41"/>
<path d="M464.723 112.279L462.874 89.943H438.299L432.852 113.607L464.723 112.279Z" fill="#A0616A"/>
<path opacity="0.1" d="M464.723 112.279L462.874 89.943H438.299L432.852 113.607L464.723 112.279Z" fill="black"/>
<path d="M194.465 87.4673L194.895 58.7438L177.183 47.7023L157.922 71.2622L194.465 87.4673Z" fill="#FFB6B6"/>
<path opacity="0.1" d="M194.462 87.4673L195.608 59.4596L177.18 47.7023L183.441 82.3631L194.462 87.4673Z" fill="black"/>
<path d="M446.714 97.0497C461.55 97.0497 473.577 85.0229 473.577 70.1871C473.577 55.3513 461.55 43.3245 446.714 43.3245C431.878 43.3245 419.852 55.3513 419.852 70.1871C419.852 85.0229 431.878 97.0497 446.714 97.0497Z" fill="#A0616A"/>
<path d="M439.938 41.9258C439.938 41.9258 439.938 30.8979 450.178 33.261C460.418 35.6242 463.569 39.5627 463.569 39.5627C463.569 39.5627 467.507 45.8643 473.809 46.652C480.11 47.4397 485.624 65.557 484.837 69.4955C484.049 73.434 480.11 83.6742 485.624 88.4004C491.138 93.1267 499.015 100.216 496.652 107.305C494.289 114.395 487.2 132.512 487.2 132.512C487.2 132.512 506.973 135.402 505.357 147.742C505.357 147.742 495.865 140.389 483.261 140.389C470.658 140.389 472.233 117.524 472.233 117.524C472.233 117.524 471.446 103.367 469.083 99.4283C466.719 95.4898 469.87 73.434 458.055 61.6184C446.239 49.8029 439.938 41.9258 439.938 41.9258V41.9258Z" fill="#2F2E41"/>
<path d="M443.089 39.5627C443.089 39.5627 428.122 42.7135 422.608 57.6799C417.094 72.6463 419.879 75.4312 419.879 75.4312C419.879 75.4312 418.66 84.4433 411.969 87.6034C405.279 90.7636 410.793 104.155 410.793 104.155C410.793 104.155 409.217 117.546 387.949 122.272C366.681 126.998 414.62 163.241 414.62 163.241C414.62 163.241 411.173 146.135 433.229 145.348C455.285 144.56 428.91 104.155 428.91 104.155L426.547 78.1603C426.547 78.1603 431.273 48.2274 445.452 44.2889C459.63 40.3504 443.089 39.5627 443.089 39.5627L443.089 39.5627Z" fill="#2F2E41"/>
<path d="M194.517 67.6821C211.915 67.6821 226.019 53.5783 226.019 36.1804C226.019 18.7826 211.915 4.67883 194.517 4.67883C177.119 4.67883 163.016 18.7826 163.016 36.1804C163.016 53.5783 177.119 67.6821 194.517 67.6821Z" fill="#FFB6B6"/>
<path d="M237.478 277.401L208.133 477.091H171.316L176.211 363.103L178.788 303.167L171.316 274.638C171.316 274.638 167.909 268.297 165.039 260.61C161.804 251.935 159.248 241.535 163.042 236.604C164.437 234.786 168.066 233.44 172.998 232.438C176.011 231.823 179.518 231.343 183.304 230.971C205.077 228.817 236.047 230.162 236.047 230.162L236.834 256.144L237.271 270.652L237.478 277.401Z" fill="#2F2E41"/>
<path d="M57.0938 483.308L75.8546 493.385L123.656 425.82L95.9668 410.946L57.0938 483.308Z" fill="#FFB6B6"/>
<path d="M121.597 517.415C121.652 518.712 120.254 522.053 119.64 523.197C117.75 526.714 113.368 528.033 109.852 526.143L51.7544 494.93C49.3555 493.641 48.4555 490.651 49.7444 488.252L51.044 485.834C51.044 485.834 52.0757 477.02 62.8068 471.239C62.8068 471.239 66.3915 482.206 83.2845 477.121L89.6791 472.991L103.919 502.749L116.061 511.335C118.718 513.214 121.457 514.164 121.596 517.415L121.597 517.415Z" fill="#2F2E41"/>
<path d="M237.268 270.652L221.694 301.879L176.209 363.103L101.328 463.9L68.8984 446.479L157.793 296.804L164.721 268.132C164.721 268.132 164.721 265.033 165.036 260.61C165.652 251.856 167.498 237.907 172.995 232.438C173.739 231.694 174.548 231.107 175.428 230.713C177.082 229.969 179.83 230.148 183.302 230.971C197.802 234.435 224.864 249.315 236.831 256.144L237.268 270.652H237.268Z" fill="#2F2E41"/>
<path d="M462.724 517.629L444.414 517.627L435.703 447L462.728 447.002L462.724 517.629Z" fill="#A0616A"/>
<path d="M399.988 517.214C399.418 518.174 399.117 521.273 399.117 522.39C399.117 525.822 401.9 528.604 405.332 528.604H462.038C464.379 528.604 466.277 526.706 466.277 524.365V522.004C466.277 522.004 469.083 514.908 463.307 506.163C463.307 506.163 456.129 513.011 445.403 502.285L442.24 496.555L419.345 513.299L406.655 514.862C403.878 515.203 401.417 514.809 399.988 517.214H399.988H399.988Z" fill="#2F2E41"/>
<path d="M534.857 496.051L517.93 503.034L482.938 441.069L507.92 430.762L534.857 496.051Z" fill="#A0616A"/>
<path d="M476.706 519.597C476.546 520.702 477.45 523.681 477.876 524.714C479.185 527.886 482.818 529.397 485.991 528.088L538.409 506.458C540.574 505.564 541.604 503.086 540.711 500.921L539.811 498.739C539.811 498.739 539.697 491.11 531.023 485.228C531.023 485.228 526.999 494.297 512.993 488.473L507.884 484.383L493.107 508.595L481.971 514.879C479.535 516.254 477.109 516.828 476.707 519.597L476.706 519.597H476.706Z" fill="#2F2E41"/>
<path d="M471.124 275.354L463.651 303.883L465.641 350.177L468.94 427.068L469.034 429.237L469.406 437.883L471.123 477.807H434.306L417.916 366.274L404.961 278.117L406.321 233.226L406.392 230.878C406.392 230.878 472.24 228.015 479.397 237.32C486.555 246.624 471.123 275.354 471.123 275.354H471.124Z" fill="#2F2E41"/>
<path d="M522.349 449.106L516.107 452.334L493.025 464.279L489.647 466.026L469.406 437.883L417.916 366.274L404.961 278.117L406.321 233.226C412.147 231.372 416.806 230.613 419.168 231.716C429.804 236.69 429.296 269.299 429.296 269.299L435.773 298.071L465.641 350.177L522.349 449.106Z" fill="#2F2E41"/>
<path d="M389.224 457.909C388.75 456.46 385.159 457.098 384.814 455.801C384.471 454.509 387.917 453.426 390.559 449.784C391.036 449.128 394.039 444.99 392.887 443.25C390.704 439.951 375.514 448.167 371.868 443.556C371.068 442.544 370.738 440.807 368.355 437.574C367.406 436.288 366.798 435.667 366.071 435.686C365.039 435.712 364.67 437.002 363.049 439.34C360.618 442.845 359.741 442.405 358.139 445.277C356.95 447.409 356.809 448.772 355.952 448.852C354.738 448.966 354.237 446.311 352.755 446.208C351.242 446.103 349.728 448.726 348.977 450.776C347.569 454.621 348.441 457.561 348.635 460.49C348.845 463.674 348.351 468.334 344.892 474.316L312.266 526.298C319.273 515.701 339.162 486.804 347.176 476.204C349.489 473.144 351.975 470.072 355.802 469.494C359.486 468.937 363.968 470.76 370.224 470.654C370.955 470.641 372.988 470.581 373.483 469.503C373.892 468.612 372.877 467.837 373.246 467C373.741 465.876 375.97 466.358 379.008 465.612C381.15 465.086 382.605 464.217 383.857 463.469C384.234 463.244 389.855 459.839 389.224 457.909H389.224Z" fill="#F2F2F2"/>
<path d="M303.768 470.046C302.92 469.86 302.197 471.807 301.461 471.602C300.728 471.398 301.19 469.394 300.166 467.046C299.981 466.623 298.817 463.955 297.63 464.018C295.381 464.138 295.031 473.964 291.716 474.423C290.988 474.524 290.041 474.184 287.766 474.421C286.862 474.516 286.381 474.635 286.181 474.997C285.896 475.511 286.423 476.065 287.102 477.535C288.121 479.739 287.652 480.043 288.599 481.658C289.303 482.857 289.931 483.319 289.723 483.763C289.429 484.391 287.981 483.871 287.503 484.569C287.015 485.281 287.865 486.781 288.655 487.741C290.136 489.542 291.83 489.962 293.324 490.712C294.947 491.527 297.092 493.114 299.029 496.538L315.129 527.55C311.949 521.053 303.505 502.953 300.615 495.962C299.781 493.944 298.99 491.837 299.811 489.792C300.6 487.823 302.788 486.149 304.541 483.048C304.746 482.686 305.303 481.67 304.917 481.117C304.598 480.659 303.924 480.934 303.62 480.511C303.211 479.943 304.091 478.988 304.601 477.282C304.961 476.079 304.954 475.114 304.949 474.284C304.947 474.034 304.898 470.293 303.768 470.046L303.768 470.046Z" fill="#F2F2F2"/>
<path d="M319.828 477.613L320.334 472.94L320.645 472.647C322.081 471.29 322.979 469.852 323.316 468.372C323.369 468.137 323.411 467.899 323.453 467.657C323.622 466.696 323.83 465.502 324.754 464.261C325.271 463.57 326.638 462.008 328.048 462.554C328.429 462.697 328.686 462.943 328.864 463.205C328.909 463.16 328.955 463.114 329.004 463.065C329.613 462.473 330.039 462.256 330.449 462.048C330.765 461.887 331.091 461.722 331.642 461.281C331.884 461.088 332.077 460.913 332.24 460.767C332.735 460.326 333.368 459.808 334.235 460.013C335.154 460.264 335.469 461.141 335.678 461.721C336.051 462.756 336.166 463.468 336.242 463.94C336.27 464.113 336.302 464.307 336.326 464.37C336.527 464.877 339.052 465.008 340.002 465.063C342.138 465.179 343.985 465.279 344.43 466.742C344.749 467.788 344.084 468.929 342.398 470.223C341.872 470.626 341.347 470.904 340.889 471.111C341.171 471.377 341.395 471.739 341.409 472.232C341.44 473.399 340.243 474.294 337.852 474.898C337.258 475.049 336.459 475.25 335.413 475.199C334.921 475.175 334.489 475.1 334.122 475.029C334.067 475.239 333.966 475.456 333.785 475.663C333.253 476.272 332.393 476.427 331.227 476.084C329.939 475.725 328.922 475.237 328.024 474.808C327.24 474.434 326.563 474.115 325.996 474.028C324.941 473.88 323.957 474.532 322.779 475.399L319.828 477.613H319.828H319.828Z" fill="#F2F2F2"/>
<path d="M328.248 451.001L323.601 451.697L323.238 451.471C321.561 450.426 319.943 449.922 318.426 449.971C318.184 449.979 317.944 449.999 317.699 450.02C316.727 450.101 315.519 450.202 314.085 449.623C313.285 449.298 311.427 448.372 311.597 446.87C311.639 446.465 311.812 446.154 312.02 445.915C311.965 445.883 311.909 445.85 311.85 445.815C311.122 445.376 310.805 445.019 310.498 444.675C310.263 444.411 310.02 444.138 309.454 443.716C309.206 443.532 308.989 443.388 308.806 443.268C308.253 442.901 307.592 442.42 307.57 441.53C307.58 440.577 308.348 440.05 308.857 439.7C309.763 439.077 310.423 438.785 310.86 438.591C311.02 438.521 311.2 438.441 311.255 438.402C311.694 438.079 311.18 435.603 310.992 434.67C310.563 432.575 310.191 430.762 311.493 429.961C312.424 429.388 313.696 429.741 315.376 431.044C315.899 431.45 316.301 431.888 316.618 432.278C316.804 431.938 317.097 431.629 317.57 431.491C318.691 431.165 319.86 432.095 321.051 434.255C321.348 434.791 321.745 435.513 321.961 436.538C322.062 437.02 322.099 437.457 322.124 437.83C322.341 437.83 322.577 437.872 322.823 437.995C323.547 438.355 323.915 439.147 323.879 440.363C323.858 441.699 323.644 442.807 323.457 443.785C323.294 444.638 323.157 445.373 323.216 445.944C323.341 447.002 324.221 447.789 325.359 448.708L328.249 451.001H328.248V451.001Z" fill="#F2F2F2"/>
<path d="M328.875 437.044L329.381 432.372L329.691 432.078C331.127 430.721 332.026 429.284 332.363 427.804C332.416 427.568 332.458 427.33 332.5 427.088C332.668 426.128 332.877 424.933 333.801 423.693C334.317 423.002 335.685 421.44 337.095 421.986C337.475 422.128 337.732 422.375 337.911 422.637C337.956 422.591 338.002 422.546 338.051 422.497C338.66 421.905 339.086 421.688 339.496 421.479C339.812 421.318 340.137 421.153 340.689 420.712C340.93 420.519 341.124 420.345 341.287 420.199C341.782 419.757 342.415 419.24 343.282 419.445C344.201 419.696 344.516 420.572 344.725 421.153C345.098 422.188 345.213 422.9 345.289 423.372C345.317 423.544 345.349 423.739 345.373 423.802C345.574 424.309 348.099 424.44 349.049 424.495C351.184 424.611 353.032 424.711 353.477 426.173C353.796 427.219 353.131 428.36 351.444 429.655C350.919 430.057 350.394 430.335 349.936 430.543C350.218 430.809 350.442 431.171 350.456 431.664C350.487 432.83 349.29 433.726 346.899 434.329C346.305 434.481 345.506 434.682 344.46 434.631C343.968 434.606 343.536 434.531 343.169 434.461C343.114 434.67 343.013 434.888 342.832 435.095C342.3 435.704 341.44 435.859 340.274 435.515C338.986 435.157 337.969 434.669 337.071 434.24C336.287 433.866 335.61 433.546 335.043 433.459C333.988 433.312 333.004 433.963 331.826 434.83L328.875 437.044H328.875Z" fill="#F2F2F2"/>
<path d="M313.805 526.564L312.983 525.752L312.998 524.598L312.983 525.752L311.841 525.631C311.846 525.524 311.839 525.273 311.831 524.88C311.787 522.731 311.65 516.19 312.561 506.139C313.197 499.123 314.26 492.001 315.72 484.968C317.183 477.924 318.701 472.683 319.92 468.47C320.84 465.293 321.768 462.279 322.675 459.343C325.094 451.501 327.379 444.092 328.793 435.642C329.11 433.755 329.767 429.829 328.421 425.194C327.64 422.506 326.303 419.976 324.446 417.676L326.243 416.224C328.293 418.765 329.772 421.567 330.639 424.552C332.132 429.691 331.415 433.969 331.071 436.025C329.631 444.625 327.324 452.104 324.881 460.023C323.979 462.948 323.054 465.948 322.138 469.112C320.93 473.286 319.425 478.482 317.982 485.436C316.538 492.385 315.489 499.419 314.86 506.347C313.961 516.271 314.096 522.715 314.14 524.832C314.163 525.962 314.168 526.199 313.805 526.564V526.564H313.805Z" fill="#F2F2F2"/>
<path d="M319.519 420.335C319.426 420.315 319.333 420.292 319.24 420.264C317.344 419.732 315.823 418.187 314.718 415.672C314.201 414.489 314.079 413.244 313.835 410.762C313.797 410.379 313.628 408.442 313.836 405.875C313.971 404.198 314.151 403.524 314.608 402.995C315.114 402.406 315.797 402.068 316.519 401.899C316.539 401.677 316.611 401.46 316.755 401.254C317.349 400.4 318.343 400.751 318.882 400.933C319.154 401.031 319.492 401.155 319.873 401.219C320.471 401.322 320.829 401.217 321.37 401.061C321.887 400.91 322.531 400.723 323.42 400.739C325.176 400.763 326.475 401.552 326.903 401.812C329.16 403.168 329.939 405.331 330.84 407.835C331.019 408.338 331.614 410.152 331.752 412.489C331.852 414.175 331.631 414.865 331.378 415.358C330.861 416.373 330.069 416.843 328.102 417.832C326.048 418.869 325.018 419.388 324.172 419.654C322.206 420.272 320.971 420.659 319.519 420.335V420.335Z" fill="#F2F2F2"/>
<path d="M583.04 528.789C583.04 529.253 582.664 529.629 582.2 529.629H0V527.949H582.2C582.664 527.949 583.04 528.325 583.04 528.789Z" fill="#E6E6E6"/>
<path d="M161.966 65.1854L197.753 82.3631C197.753 82.3631 235.687 194.733 235.687 200.459C235.687 206.185 246.423 209.764 239.981 216.206C233.54 222.647 251.971 228.102 242.039 233.248C232.108 238.393 170.155 266.538 163.266 264C144.266 257 164.071 231.278 164.071 231.278C164.071 231.278 149.799 219.784 151.946 214.058C154.093 208.332 139.062 98.825 139.062 98.825L161.966 65.1854V65.1854Z" fill="#E6E6E6"/>
<path d="M192.596 43.7256L196.648 51.8292C196.648 51.8292 200.699 37.2428 207.182 34.0014C213.665 30.76 214.475 25.8979 214.475 25.8979C214.475 25.8979 222.579 36.4325 228.251 34.0014C233.924 31.5704 236.355 29.9497 229.872 20.2255C223.389 10.5013 225.01 15.3634 225.01 15.3634C225.01 15.3634 219.337 7.25984 220.148 9.6909C220.958 12.1219 215.286 3.20809 215.286 5.63914C215.286 8.07019 211.234 0.777025 211.234 3.20809C211.234 5.63914 194.217 -2.46438 196.648 0.777035C199.079 4.01845 182.061 -5.70577 173.958 7.25985C165.854 20.2255 154.618 17.8277 158.615 25.9146C162.613 34.0014 160.992 55.8809 160.992 55.8809H172.168C172.168 55.8809 183.682 34.0014 192.596 43.7256V43.7256Z" fill="#2F2E41"/>
<path d="M431.085 112.424L431.741 112.239L464.009 103.119L489.776 138.19L472.598 211.195L479.04 240.541C479.04 240.541 426.791 226.942 406.035 238.393C406.035 238.393 404.603 231.867 406.035 228.689C407.466 225.51 409.613 212.283 407.466 206.371C405.319 200.459 411.761 172.546 411.761 172.546C411.761 172.546 409.613 153.937 418.918 144.632C428.222 135.327 431.085 112.424 431.085 112.424Z" fill="#FF6363"/>
<path d="M401.78 244.249L288.393 187.899C287.828 187.619 287.336 187.233 286.928 186.752L269.235 165.901C268.062 164.518 267.808 162.566 268.589 160.929L301.763 91.328C302.344 90.1083 303.426 89.2077 304.731 88.8568C306.038 88.5066 307.425 88.7439 308.539 89.5082L388.504 144.36C390.146 145.486 390.879 147.528 390.329 149.441L374.094 205.939C373.65 207.484 374.216 209.171 375.502 210.135L407.619 234.223C409.349 235.52 409.947 237.886 409.041 239.849L408.025 242.05C407.498 243.192 406.554 244.051 405.368 244.469C404.865 244.647 404.346 244.735 403.83 244.735C403.128 244.734 402.43 244.572 401.78 244.249V244.249Z" fill="#FF6363"/>
<path d="M400.871 230.535L369.307 204.274C369.035 204.045 368.82 203.766 368.67 203.458C368.384 202.879 368.326 202.184 368.541 201.547L386.528 148.919C386.993 147.559 386.492 146.042 385.304 145.226L310.366 93.9222C309.6 93.3926 308.641 93.228 307.739 93.4642C306.83 93.7003 306.079 94.3159 305.664 95.1533L274.071 159.305C273.592 160.271 273.627 161.38 274.157 162.304C274.222 162.432 274.3 162.554 274.393 162.669L290.283 183.64C290.59 184.04 290.991 184.37 291.442 184.591L397.414 235.903C397.858 236.117 398.337 236.225 398.817 236.225C399.647 236.225 400.477 235.903 401.093 235.28C401.164 235.201 401.236 235.13 401.307 235.044C401.808 234.435 402.066 233.655 402.03 232.861C401.987 231.959 401.565 231.114 400.871 230.535Z" fill="#F2F2F2"/>
<path d="M286.504 155.368C286.766 155.368 287.018 155.224 287.144 154.974L312.832 103.941C313.01 103.588 312.867 103.158 312.514 102.98C312.16 102.801 311.731 102.944 311.553 103.297L285.866 154.33C285.688 154.684 285.83 155.114 286.183 155.292C286.287 155.344 286.396 155.368 286.504 155.368Z" fill="#FF6363"/>
<path d="M300.106 163.957C300.368 163.957 300.62 163.813 300.746 163.563L326.433 112.53C326.611 112.177 326.469 111.746 326.116 111.569C325.761 111.39 325.332 111.533 325.155 111.886L299.467 162.919C299.289 163.273 299.432 163.703 299.785 163.88C299.888 163.932 299.998 163.957 300.106 163.957Z" fill="#FF6363"/>
<path d="M311.559 171.114C311.821 171.114 312.073 170.97 312.199 170.72L337.886 119.687C338.064 119.334 337.922 118.904 337.569 118.726C337.215 118.548 336.786 118.69 336.608 119.043L310.92 170.077C310.743 170.43 310.885 170.86 311.238 171.038C311.341 171.09 311.451 171.114 311.559 171.114V171.114Z" fill="#FF6363"/>
<path d="M271.014 164.201C279.896 161.577 288.449 164.033 290.118 169.686C291.787 175.338 285.94 182.046 277.055 184.669C273.52 185.766 269.774 186 266.13 185.353L228.359 195.995L223.742 178.163L261.469 169.565C264.177 167.04 267.45 165.201 271.014 164.201Z" fill="#FFB6B6"/>
<path d="M204.207 101.006L198.286 171.83L251.315 172.4L261.607 188.247C261.607 188.247 197.333 225.463 178.033 206.447C158.734 187.431 150.146 107.409 167.305 93.712C184.464 80.0146 204.207 101.006 204.207 101.006Z" fill="#E6E6E6"/>
<path d="M377.922 228.882C368.687 228.187 361.56 222.858 362.004 216.981C362.448 211.104 370.293 206.905 379.531 207.602C383.225 207.83 386.811 208.939 389.988 210.837L429.079 214.278L427.074 232.588L388.749 227.252C385.322 228.652 381.61 229.211 377.922 228.882Z" fill="#A0616A"/>
<path d="M492.242 142.869L485.854 222.655C485.854 222.655 483.842 239.849 457.065 238.771C430.287 237.693 394.719 229.24 394.719 229.24L396.004 210.62L425.935 212.246C425.935 212.246 439.646 208.13 442.525 210.255C445.405 212.379 444.281 215.108 446.831 211.653C449.38 208.197 447.901 206.216 450.444 208.981C452.987 211.747 453.742 216.752 454.838 210.444C455.933 204.137 458.662 205.261 458.662 205.261L457.06 147.154C457.06 147.154 463.568 119.045 478.665 127.516C493.762 135.986 492.242 142.869 492.242 142.869Z" fill="#FF6363"/>
</g>
<defs>
<clipPath id="clip0_794_187">
<rect width="583.04" height="529.629" fill="white"/>
</clipPath>
</defs>
</svg>
