<svg width="266" height="91" viewBox="0 0 266 91" fill="none" xmlns="http://www.w3.org/2000/svg">
<rect width="266" height="77" rx="10" fill="#125B50"/>
<path d="M133 91L142.526 74.5H123.474L133 91Z" fill="#125B50"/>
<path d="M79.1875 41.2109L86.3594 30.0312H88.75V33.8984H87.3203L82.75 41.0234V41.1641H92.9336V44H79.1875V41.2109ZM87.4258 43.1445L87.4727 41.9141V30.0312H90.7891V47H87.4258V43.1445ZM101.828 47.2344C100.414 47.2344 99.1953 46.8945 98.1719 46.2148C97.1562 45.5273 96.375 44.5312 95.8281 43.2266C95.2891 41.9219 95.0195 40.3516 95.0195 38.5156C95.0195 36.6875 95.2891 35.1211 95.8281 33.8164C96.375 32.5039 97.1562 31.5078 98.1719 30.8281C99.1953 30.1406 100.414 29.7969 101.828 29.7969C103.234 29.7969 104.449 30.1406 105.473 30.8281C106.496 31.5078 107.281 32.5039 107.828 33.8164C108.375 35.1211 108.648 36.6875 108.648 38.5156C108.648 40.3594 108.375 41.9336 107.828 43.2383C107.289 44.543 106.508 45.5352 105.484 46.2148C104.461 46.8945 103.242 47.2344 101.828 47.2344ZM101.828 44.3281C102.492 44.3281 103.066 44.1133 103.551 43.6836C104.043 43.2539 104.414 42.6055 104.664 41.7383C104.922 40.8711 105.047 39.7969 105.039 38.5156C105.039 37.25 104.91 36.1836 104.652 35.3164C104.395 34.4414 104.023 33.7852 103.539 33.3477C103.055 32.9102 102.484 32.6914 101.828 32.6914C101.164 32.6914 100.594 32.9102 100.117 33.3477C99.6406 33.7852 99.2695 34.4414 99.0039 35.3164C98.7383 36.1836 98.6055 37.25 98.6055 38.5156C98.6055 39.7969 98.7383 40.8711 99.0039 41.7383C99.2695 42.6055 99.6367 43.2539 100.105 43.6836C100.582 44.1133 101.156 44.3281 101.828 44.3281ZM110.805 41.2109L117.977 30.0312H120.367V33.8984H118.938L114.367 41.0234V41.1641H124.551V44H110.805V41.2109ZM119.043 43.1445L119.09 41.9141V30.0312H122.406V47H119.043V43.1445ZM132.52 30.0312H143.91V32.9375H136.035V37.0625H143.312V39.957H136.035V44.0938H143.934V47H132.52V30.0312ZM146.57 34.2734H149.922V36.4883H150.062C150.289 35.7148 150.676 35.125 151.223 34.7188C151.77 34.3047 152.402 34.0938 153.121 34.0859C153.621 34.1016 153.992 34.1406 154.234 34.2031V37.2969C154.062 37.2422 153.836 37.1992 153.555 37.168C153.273 37.1289 153.004 37.1094 152.746 37.1094C152.23 37.1094 151.77 37.2227 151.363 37.4492C150.957 37.6758 150.633 37.9922 150.391 38.3984C150.156 38.7969 150.039 39.2539 150.039 39.7695V47H146.57V34.2734ZM155.922 34.2734H159.273V36.4883H159.414C159.641 35.7148 160.027 35.125 160.574 34.7188C161.121 34.3047 161.754 34.0938 162.473 34.0859C162.973 34.1016 163.344 34.1406 163.586 34.2031V37.2969C163.414 37.2422 163.188 37.1992 162.906 37.168C162.625 37.1289 162.355 37.1094 162.098 37.1094C161.582 37.1094 161.121 37.2227 160.715 37.4492C160.309 37.6758 159.984 37.9922 159.742 38.3984C159.508 38.7969 159.391 39.2539 159.391 39.7695V47H155.922V34.2734ZM170.582 47.2461C169.309 47.2461 168.199 46.9727 167.254 46.4258C166.316 45.8789 165.594 45.1133 165.086 44.1289C164.578 43.1367 164.324 41.9883 164.324 40.6836C164.324 39.3711 164.578 38.2227 165.086 37.2383C165.594 36.2461 166.316 35.4766 167.254 34.9297C168.199 34.3828 169.309 34.1094 170.582 34.1094C171.84 34.1094 172.941 34.3828 173.887 34.9297C174.84 35.4766 175.566 36.2461 176.066 37.2383C176.566 38.2227 176.816 39.3711 176.816 40.6836C176.816 41.9883 176.566 43.1367 176.066 44.1289C175.566 45.1133 174.84 45.8789 173.887 46.4258C172.941 46.9727 171.84 47.2461 170.582 47.2461ZM170.605 44.5625C171.176 44.5625 171.664 44.3945 172.07 44.0586C172.477 43.7227 172.781 43.2617 172.984 42.6758C173.188 42.082 173.289 41.4102 173.289 40.6602C173.289 39.9023 173.188 39.2305 172.984 38.6445C172.781 38.0586 172.477 37.5977 172.07 37.2617C171.664 36.9258 171.176 36.7578 170.605 36.7578C170.012 36.7578 169.508 36.9258 169.094 37.2617C168.68 37.5977 168.367 38.0586 168.156 38.6445C167.953 39.2305 167.848 39.9023 167.84 40.6602C167.848 41.4102 167.953 42.082 168.156 42.6758C168.367 43.2617 168.68 43.7227 169.094 44.0586C169.508 44.3945 170.012 44.5625 170.605 44.5625ZM179.008 34.2734H182.359V36.4883H182.5C182.727 35.7148 183.113 35.125 183.66 34.7188C184.207 34.3047 184.84 34.0938 185.559 34.0859C186.059 34.1016 186.43 34.1406 186.672 34.2031V37.2969C186.5 37.2422 186.273 37.1992 185.992 37.168C185.711 37.1289 185.441 37.1094 185.184 37.1094C184.668 37.1094 184.207 37.2227 183.801 37.4492C183.395 37.6758 183.07 37.9922 182.828 38.3984C182.594 38.7969 182.477 39.2539 182.477 39.7695V47H179.008V34.2734Z" fill="white"/>
</svg>
